<svg xmlns="http://www.w3.org/2000/svg" xmlns:xlink="http://www.w3.org/1999/xlink" width="104.8mm" height="85.115mm" viewBox="4021 3520.9 412.6 335.1"><title></title><style type="text/css">
*[layerid="1"] {stroke:#000000;fill:#000000;}
*[layerid="2"] {stroke:#000000;fill:#000000;}
*[layerid="3"] {stroke:#000000;fill:#000000;}
*[layerid="4"] {stroke:#000000;fill:#000000;}
*[layerid="5"] {stroke:#000000;fill:#000000;}
*[layerid="6"] {stroke:#000000;fill:#000000;}
*[layerid="7"] {stroke:#000000;fill:#000000;}
*[layerid="8"] {stroke:#000000;fill:#000000;}
*[layerid="9"] {stroke:#000000;fill:#000000;}
*[layerid="10"] {stroke:#000000;fill:#000000;}
*[layerid="11"] {stroke:#000000;fill:#000000;}
*[layerid="12"] {stroke:#000000;fill:#000000;}
*[layerid="13"] {stroke:#000000;fill:#000000;}
*[layerid="14"] {stroke:#000000;fill:#000000;}
*[layerid="15"] {stroke:#000000;fill:#000000;}
*[layerid="19"] {stroke:#000000;fill:#000000;}
*[layerid="21"] {stroke:#000000;fill:#000000;}
*[layerid="22"] {stroke:#000000;fill:#000000;}
*[layerid="23"] {stroke:#000000;fill:#000000;}
*[layerid="24"] {stroke:#000000;fill:#000000;}
*[layerid="25"] {stroke:#000000;fill:#000000;}
*[layerid="26"] {stroke:#000000;fill:#000000;}
*[layerid="27"] {stroke:#000000;fill:#000000;}
*[layerid="28"] {stroke:#000000;fill:#000000;}
*[layerid="29"] {stroke:#000000;fill:#000000;}
*[layerid="30"] {stroke:#000000;fill:#000000;}
*[layerid="31"] {stroke:#000000;fill:#000000;}
*[layerid="32"] {stroke:#000000;fill:#000000;}
*[layerid="33"] {stroke:#000000;fill:#000000;}
*[layerid="34"] {stroke:#000000;fill:#000000;}
*[layerid="35"] {stroke:#000000;fill:#000000;}
*[layerid="36"] {stroke:#000000;fill:#000000;}
*[layerid="37"] {stroke:#000000;fill:#000000;}
*[layerid="38"] {stroke:#000000;fill:#000000;}
*[layerid="39"] {stroke:#000000;fill:#000000;}
*[layerid="40"] {stroke:#000000;fill:#000000;}
*[layerid="41"] {stroke:#000000;fill:#000000;}
*[layerid="42"] {stroke:#000000;fill:#000000;}
*[layerid="43"] {stroke:#000000;fill:#000000;}
*[layerid="44"] {stroke:#000000;fill:#000000;}
*[layerid="45"] {stroke:#000000;fill:#000000;}
*[layerid="46"] {stroke:#000000;fill:#000000;}
*[layerid="47"] {stroke:#000000;fill:#000000;}
*[layerid="48"] {stroke:#000000;fill:#000000;}
*[layerid="49"] {stroke:#000000;fill:#000000;}
*[layerid="50"] {stroke:#000000;fill:#000000;}
*[layerid="51"] {stroke:#000000;fill:#000000;}
*[layerid="52"] {stroke:#000000;fill:#000000;}
*[layerid="99"] {stroke:#000000;fill:#000000;}
*[layerid="100"] {stroke:#000000;fill:#000000;}
*[layerid="Hole"] {stroke:#000000;fill:#000000;}
*[layerid="DRCError"] {stroke:#000000;fill:#000000;}
*[fill="none"] {fill: none;}
*[stroke="none"] {stroke: none;}
path, polyline, polygon, line {stroke-linecap:round;}
g[c_partid="part_pad"][layerid="1"] ellipse:not([c_etype="pad_outer"]) {fill:#000000;}
g[c_partid="part_pad"][layerid="1"] polygon:not([c_etype="pad_outer"]) {fill:#000000;}
g[c_partid="part_pad"][layerid="1"] polyline:not([c_etype="pad_outer"]) {stroke:#000000;}
g[c_partid="part_pad"][layerid="2"] ellipse:not([c_etype="pad_outer"]) {fill:#000000;}
g[c_partid="part_pad"][layerid="2"] polygon:not([c_etype="pad_outer"]) {fill:#000000;}
g[c_partid="part_pad"][layerid="2"] polyline:not([c_etype="pad_outer"]) {stroke:#000000;}
g[c_partid="part_pad"][layerid="11"] ellipse:not([c_etype="pad_outer"]) {fill:#000000;}
g[c_partid="part_pad"][layerid="11"] polygon:not([c_etype="pad_outer"]) {fill:#000000;}
g[c_partid="part_pad"][layerid="11"] polyline:not([c_etype="pad_outer"]) {stroke:#000000;}
g[c_partid="part_pad"][layerid="11"] circle {fill:#FFFFFF;}
g[c_partid="part_pad"][layerid="11"] > polyline:nth-of-type(2) {stroke:#FFFFFF;}
g[c_partid="part_pad"][layerid="11"][c_shape="ELLIPSE"]  polyline:nth-last-of-type(1) {stroke:#FFFFFF;}
g[c_partid="part_pad"][layerid="11"][c_shape="RECT"]  polyline:nth-last-of-type(1) {stroke:#FFFFFF;}
g[c_partid="part_pad"][layerid="11"][c_shape="POLYGON"]  polyline:nth-last-of-type(1) {stroke:#FFFFFF;}
g[c_partid="part_via"] > * + circle, #gCurParts g[c_partid="part_via"] > * + circle {fill:#FFFFFF;}
g[c_partid="part_pad"] > polygon[c_etype="pad_outer"], #gCurParts g[c_partid="part_pad"] > polygon[c_etype="pad_outer"] {stroke-linejoin: miter;stroke-miterlimit: 100;}
g[c_partid="part_hole"] > circle {fill: #FFFFFF;}path, polyline, polygon {stroke-linejoin:round;}
rect, circle, ellipse, polyline, line, polygon, path {shape-rendering:crispEdges;}
</style>
<rect x="4021" y="3520.9" width="412.6" height="335.1" fill="#FFFFFF" stroke="none"/><g c_partid="part_pad" c_etype="pinpart" c_origin="4296,3815" layerid="11" number="1" net="U1_19" plated ="Y"  id="gge11" locked="0" c_rotation="0" c_width="11.811" c_height="11.811" title="U1_19" c_shape="RECT" pasteexpansion="0" solderexpansion="0.4"><polygon  c_etype="pad_shell" points="4290.0945 3809.0945 4301.9055 3809.0945 4301.9055 3820.9055 4290.0945 3820.9055" layerid="11" stroke-width="0" /><circle c_etype="pad_hole" cx="4296" cy="3815" r="3.3465" layerid="11" stroke-width="0"/></g><g c_partid="part_pad" c_etype="pinpart" c_origin="4316,3815" layerid="11" number="2" net="U1_11" plated ="Y"  id="gge16" locked="0" c_rotation="0" c_width="11.811" c_height="11.811" title="U1_11" c_shape="ELLIPSE" pasteexpansion="0" solderexpansion="0.4"><ellipse c_etype="pad_shell" cx="4316" cy="3815" rx="5.9055" ry="5.9055" layerid="11" stroke-width="0"/><circle c_etype="pad_hole" cx="4316" cy="3815" r="3.3465" layerid="11" stroke-width="0"/></g><g c_partid="part_pad" c_etype="pinpart" c_origin="4336,3815" layerid="11" number="3" net="U1_40" plated ="Y"  id="gge21" locked="0" c_rotation="0" c_width="11.811" c_height="11.811" title="U1_40" c_shape="ELLIPSE" pasteexpansion="0" solderexpansion="0.4"><ellipse c_etype="pad_shell" cx="4336" cy="3815" rx="5.9055" ry="5.9055" layerid="11" stroke-width="0"/><circle c_etype="pad_hole" cx="4336" cy="3815" r="3.3465" layerid="11" stroke-width="0"/></g><g c_partid="part_pad" c_etype="pinpart" c_origin="4307,3770.5" layerid="11" number="1" net="U1_19" plated ="Y"  id="gge36" locked="0" c_rotation="0" c_width="11.811" c_height="11.811" title="U1_19" c_shape="RECT" pasteexpansion="0" solderexpansion="0.4"><polygon  c_etype="pad_shell" points="4301.0945 3764.5945 4312.9055 3764.5945 4312.9055 3776.4055 4301.0945 3776.4055" layerid="11" stroke-width="0" /><circle c_etype="pad_hole" cx="4307" cy="3770.5" r="3.3465" layerid="11" stroke-width="0"/></g><g c_partid="part_pad" c_etype="pinpart" c_origin="4327,3770.5" layerid="11" number="2" net="U1_40" plated ="Y"  id="gge41" locked="0" c_rotation="0" c_width="11.811" c_height="11.811" title="U1_40" c_shape="ELLIPSE" pasteexpansion="0" solderexpansion="0.4"><ellipse c_etype="pad_shell" cx="4327" cy="3770.5" rx="5.9055" ry="5.9055" layerid="11" stroke-width="0"/><circle c_etype="pad_hole" cx="4327" cy="3770.5" r="3.3465" layerid="11" stroke-width="0"/></g><g c_partid="part_pad" c_etype="pinpart" c_origin="4347,3770.5" layerid="11" number="3" net="U1_12" plated ="Y"  id="gge46" locked="0" c_rotation="0" c_width="11.811" c_height="11.811" title="U1_12" c_shape="ELLIPSE" pasteexpansion="0" solderexpansion="0.4"><ellipse c_etype="pad_shell" cx="4347" cy="3770.5" rx="5.9055" ry="5.9055" layerid="11" stroke-width="0"/><circle c_etype="pad_hole" cx="4347" cy="3770.5" r="3.3465" layerid="11" stroke-width="0"/></g><g c_partid="part_pad" c_etype="pinpart" c_origin="4326.5,3734.559" layerid="11" number="1" net="U1_40" plated ="Y"  id="gge61" locked="0" c_rotation="90" c_width="9.0551" c_height="9.0551" title="U1_40" c_shape="RECT" pasteexpansion="0" solderexpansion="0.4"><polygon  c_etype="pad_shell" points="4321.9724 3739.0867 4321.9724 3730.0315 4331.0276 3730.0315 4331.0276 3739.0867" layerid="11" stroke-width="0" /><circle c_etype="pad_hole" cx="4326.5" cy="3734.5591" r="2.9528" layerid="11" stroke-width="0"/></g><g c_partid="part_pad" c_etype="pinpart" c_origin="4326.5,3720.779" layerid="11" number="2" net="U1_2" plated ="Y"  id="gge66" locked="0" c_rotation="90" c_width="9.0551" c_height="9.0551" title="U1_2" c_shape="ELLIPSE" pasteexpansion="0" solderexpansion="0.4"><ellipse c_etype="pad_shell" cx="4326.5" cy="3720.779" rx="4.52755" ry="4.52755" layerid="11" stroke-width="0"/><circle c_etype="pad_hole" cx="4326.5" cy="3720.7795" r="2.9528" layerid="11" stroke-width="0"/></g><g c_partid="part_pad" c_etype="pinpart" c_origin="4326.5,3707" layerid="11" number="3" net="U1_8" plated ="Y"  id="gge71" locked="0" c_rotation="90" c_width="9.0551" c_height="9.0551" title="U1_8" c_shape="ELLIPSE" pasteexpansion="0" solderexpansion="0.4"><ellipse c_etype="pad_shell" cx="4326.5" cy="3707" rx="4.52755" ry="4.52755" layerid="11" stroke-width="0"/><circle c_etype="pad_hole" cx="4326.5" cy="3707" r="2.9528" layerid="11" stroke-width="0"/></g><g c_partid="part_pad" c_etype="pinpart" c_origin="4326.5,3693.22" layerid="11" number="4" net="U1_7" plated ="Y"  id="gge76" locked="0" c_rotation="90" c_width="9.0551" c_height="9.0551" title="U1_7" c_shape="ELLIPSE" pasteexpansion="0" solderexpansion="0.4"><ellipse c_etype="pad_shell" cx="4326.5" cy="3693.22" rx="4.52755" ry="4.52755" layerid="11" stroke-width="0"/><circle c_etype="pad_hole" cx="4326.5" cy="3693.2205" r="2.9528" layerid="11" stroke-width="0"/></g><g c_partid="part_pad" c_etype="pinpart" c_origin="4326.5,3679.441" layerid="11" number="5" net="CN3_5" plated ="Y"  id="gge81" locked="0" c_rotation="90" c_width="9.0551" c_height="9.0551" title="CN3_5" c_shape="ELLIPSE" pasteexpansion="0" solderexpansion="0.4"><ellipse c_etype="pad_shell" cx="4326.5" cy="3679.441" rx="4.52755" ry="4.52755" layerid="11" stroke-width="0"/><circle c_etype="pad_hole" cx="4326.5" cy="3679.4415" r="2.9528" layerid="11" stroke-width="0"/></g><g c_partid="part_pad" c_etype="pinpart" c_origin="4165.5,3609.984" layerid="11" number="21" net="U1_21" plated ="Y"  id="gge98" locked="0" c_rotation="0" c_width="7" c_height="7" title="U1_21" c_shape="RECT" pasteexpansion="0" solderexpansion="0.4"><polygon  c_etype="pad_shell" points="4162 3606.4843 4169 3606.4843 4169 3613.4843 4162 3613.4843" layerid="11" stroke-width="0" /><circle c_etype="pad_hole" cx="4165.5" cy="3609.9843" r="2.2" layerid="11" stroke-width="0"/></g><g c_partid="part_pad" c_etype="pinpart" c_origin="4165.5,3619.984" layerid="11" number="22" net="U1_22" plated ="Y"  id="gge103" locked="0" c_rotation="0" c_width="7" c_height="7" title="U1_22" c_shape="ELLIPSE" pasteexpansion="0" solderexpansion="0.4"><ellipse c_etype="pad_shell" cx="4165.5" cy="3619.984" rx="3.5" ry="3.5" layerid="11" stroke-width="0"/><circle c_etype="pad_hole" cx="4165.5" cy="3619.9843" r="2.2" layerid="11" stroke-width="0"/></g><g c_partid="part_pad" c_etype="pinpart" c_origin="4165.5,3629.984" layerid="11" number="23" net="U1_23" plated ="Y"  id="gge108" locked="0" c_rotation="0" c_width="7" c_height="7" title="U1_23" c_shape="ELLIPSE" pasteexpansion="0" solderexpansion="0.4"><ellipse c_etype="pad_shell" cx="4165.5" cy="3629.984" rx="3.5" ry="3.5" layerid="11" stroke-width="0"/><circle c_etype="pad_hole" cx="4165.5" cy="3629.9843" r="2.2" layerid="11" stroke-width="0"/></g><g c_partid="part_pad" c_etype="pinpart" c_origin="4165.5,3639.984" layerid="11" number="24" net="U1_24" plated ="Y"  id="gge113" locked="0" c_rotation="0" c_width="7" c_height="7" title="U1_24" c_shape="ELLIPSE" pasteexpansion="0" solderexpansion="0.4"><ellipse c_etype="pad_shell" cx="4165.5" cy="3639.984" rx="3.5" ry="3.5" layerid="11" stroke-width="0"/><circle c_etype="pad_hole" cx="4165.5" cy="3639.9843" r="2.2" layerid="11" stroke-width="0"/></g><g c_partid="part_pad" c_etype="pinpart" c_origin="4165.5,3649.984" layerid="11" number="25" net="U1_25" plated ="Y"  id="gge118" locked="0" c_rotation="0" c_width="7" c_height="7" title="U1_25" c_shape="ELLIPSE" pasteexpansion="0" solderexpansion="0.4"><ellipse c_etype="pad_shell" cx="4165.5" cy="3649.984" rx="3.5" ry="3.5" layerid="11" stroke-width="0"/><circle c_etype="pad_hole" cx="4165.5" cy="3649.9843" r="2.2" layerid="11" stroke-width="0"/></g><g c_partid="part_pad" c_etype="pinpart" c_origin="4165.5,3659.984" layerid="11" number="26" net="U1_26" plated ="Y"  id="gge123" locked="0" c_rotation="0" c_width="7" c_height="7" title="U1_26" c_shape="ELLIPSE" pasteexpansion="0" solderexpansion="0.4"><ellipse c_etype="pad_shell" cx="4165.5" cy="3659.984" rx="3.5" ry="3.5" layerid="11" stroke-width="0"/><circle c_etype="pad_hole" cx="4165.5" cy="3659.9843" r="2.2" layerid="11" stroke-width="0"/></g><g c_partid="part_pad" c_etype="pinpart" c_origin="4165.5,3669.984" layerid="11" number="27" net="U1_27" plated ="Y"  id="gge128" locked="0" c_rotation="0" c_width="7" c_height="7" title="U1_27" c_shape="ELLIPSE" pasteexpansion="0" solderexpansion="0.4"><ellipse c_etype="pad_shell" cx="4165.5" cy="3669.984" rx="3.5" ry="3.5" layerid="11" stroke-width="0"/><circle c_etype="pad_hole" cx="4165.5" cy="3669.9843" r="2.2" layerid="11" stroke-width="0"/></g><g c_partid="part_pad" c_etype="pinpart" c_origin="4165.5,3679.984" layerid="11" number="28" net="U1_28" plated ="Y"  id="gge133" locked="0" c_rotation="0" c_width="7" c_height="7" title="U1_28" c_shape="ELLIPSE" pasteexpansion="0" solderexpansion="0.4"><ellipse c_etype="pad_shell" cx="4165.5" cy="3679.984" rx="3.5" ry="3.5" layerid="11" stroke-width="0"/><circle c_etype="pad_hole" cx="4165.5" cy="3679.9843" r="2.2" layerid="11" stroke-width="0"/></g><g c_partid="part_pad" c_etype="pinpart" c_origin="4165.5,3689.984" layerid="11" number="29" net="U1_29" plated ="Y"  id="gge138" locked="0" c_rotation="0" c_width="7" c_height="7" title="U1_29" c_shape="ELLIPSE" pasteexpansion="0" solderexpansion="0.4"><ellipse c_etype="pad_shell" cx="4165.5" cy="3689.984" rx="3.5" ry="3.5" layerid="11" stroke-width="0"/><circle c_etype="pad_hole" cx="4165.5" cy="3689.9843" r="2.2" layerid="11" stroke-width="0"/></g><g c_partid="part_pad" c_etype="pinpart" c_origin="4165.5,3699.984" layerid="11" number="30" net="U1_30" plated ="Y"  id="gge143" locked="0" c_rotation="0" c_width="7" c_height="7" title="U1_30" c_shape="ELLIPSE" pasteexpansion="0" solderexpansion="0.4"><ellipse c_etype="pad_shell" cx="4165.5" cy="3699.984" rx="3.5" ry="3.5" layerid="11" stroke-width="0"/><circle c_etype="pad_hole" cx="4165.5" cy="3699.9843" r="2.2" layerid="11" stroke-width="0"/></g><g c_partid="part_pad" c_etype="pinpart" c_origin="4255.5,3699.984" layerid="11" number="10" net="U1_10" plated ="Y"  id="gge148" locked="0" c_rotation="0" c_width="7" c_height="7" title="U1_10" c_shape="ELLIPSE" pasteexpansion="0" solderexpansion="0.4"><ellipse c_etype="pad_shell" cx="4255.5" cy="3699.984" rx="3.5" ry="3.5" layerid="11" stroke-width="0"/><circle c_etype="pad_hole" cx="4255.5" cy="3699.9843" r="2.2" layerid="11" stroke-width="0"/></g><g c_partid="part_pad" c_etype="pinpart" c_origin="4255.5,3689.984" layerid="11" number="9" net="U1_9" plated ="Y"  id="gge153" locked="0" c_rotation="0" c_width="7" c_height="7" title="U1_9" c_shape="ELLIPSE" pasteexpansion="0" solderexpansion="0.4"><ellipse c_etype="pad_shell" cx="4255.5" cy="3689.984" rx="3.5" ry="3.5" layerid="11" stroke-width="0"/><circle c_etype="pad_hole" cx="4255.5" cy="3689.9843" r="2.2" layerid="11" stroke-width="0"/></g><g c_partid="part_pad" c_etype="pinpart" c_origin="4255.5,3679.984" layerid="11" number="8" net="U1_8" plated ="Y"  id="gge158" locked="0" c_rotation="0" c_width="7" c_height="7" title="U1_8" c_shape="ELLIPSE" pasteexpansion="0" solderexpansion="0.4"><ellipse c_etype="pad_shell" cx="4255.5" cy="3679.984" rx="3.5" ry="3.5" layerid="11" stroke-width="0"/><circle c_etype="pad_hole" cx="4255.5" cy="3679.9843" r="2.2" layerid="11" stroke-width="0"/></g><g c_partid="part_pad" c_etype="pinpart" c_origin="4255.5,3669.984" layerid="11" number="7" net="U1_7" plated ="Y"  id="gge163" locked="0" c_rotation="0" c_width="7" c_height="7" title="U1_7" c_shape="ELLIPSE" pasteexpansion="0" solderexpansion="0.4"><ellipse c_etype="pad_shell" cx="4255.5" cy="3669.984" rx="3.5" ry="3.5" layerid="11" stroke-width="0"/><circle c_etype="pad_hole" cx="4255.5" cy="3669.9843" r="2.2" layerid="11" stroke-width="0"/></g><g c_partid="part_pad" c_etype="pinpart" c_origin="4255.5,3659.984" layerid="11" number="6" net="U1_6" plated ="Y"  id="gge168" locked="0" c_rotation="0" c_width="7" c_height="7" title="U1_6" c_shape="ELLIPSE" pasteexpansion="0" solderexpansion="0.4"><ellipse c_etype="pad_shell" cx="4255.5" cy="3659.984" rx="3.5" ry="3.5" layerid="11" stroke-width="0"/><circle c_etype="pad_hole" cx="4255.5" cy="3659.9843" r="2.2" layerid="11" stroke-width="0"/></g><g c_partid="part_pad" c_etype="pinpart" c_origin="4255.5,3649.984" layerid="11" number="5" net="U1_5" plated ="Y"  id="gge173" locked="0" c_rotation="0" c_width="7" c_height="7" title="U1_5" c_shape="ELLIPSE" pasteexpansion="0" solderexpansion="0.4"><ellipse c_etype="pad_shell" cx="4255.5" cy="3649.984" rx="3.5" ry="3.5" layerid="11" stroke-width="0"/><circle c_etype="pad_hole" cx="4255.5" cy="3649.9843" r="2.2" layerid="11" stroke-width="0"/></g><g c_partid="part_pad" c_etype="pinpart" c_origin="4255.5,3639.984" layerid="11" number="4" net="U1_4" plated ="Y"  id="gge178" locked="0" c_rotation="0" c_width="7" c_height="7" title="U1_4" c_shape="ELLIPSE" pasteexpansion="0" solderexpansion="0.4"><ellipse c_etype="pad_shell" cx="4255.5" cy="3639.984" rx="3.5" ry="3.5" layerid="11" stroke-width="0"/><circle c_etype="pad_hole" cx="4255.5" cy="3639.9843" r="2.2" layerid="11" stroke-width="0"/></g><g c_partid="part_pad" c_etype="pinpart" c_origin="4255.5,3629.984" layerid="11" number="3" net="U1_3" plated ="Y"  id="gge183" locked="0" c_rotation="0" c_width="7" c_height="7" title="U1_3" c_shape="ELLIPSE" pasteexpansion="0" solderexpansion="0.4"><ellipse c_etype="pad_shell" cx="4255.5" cy="3629.984" rx="3.5" ry="3.5" layerid="11" stroke-width="0"/><circle c_etype="pad_hole" cx="4255.5" cy="3629.9843" r="2.2" layerid="11" stroke-width="0"/></g><g c_partid="part_pad" c_etype="pinpart" c_origin="4255.5,3619.984" layerid="11" number="2" net="U1_2" plated ="Y"  id="gge188" locked="0" c_rotation="0" c_width="7" c_height="7" title="U1_2" c_shape="ELLIPSE" pasteexpansion="0" solderexpansion="0.4"><ellipse c_etype="pad_shell" cx="4255.5" cy="3619.984" rx="3.5" ry="3.5" layerid="11" stroke-width="0"/><circle c_etype="pad_hole" cx="4255.5" cy="3619.9843" r="2.2" layerid="11" stroke-width="0"/></g><g c_partid="part_pad" c_etype="pinpart" c_origin="4255.5,3609.984" layerid="11" number="1" net="U1_1" plated ="Y"  id="gge193" locked="0" c_rotation="0" c_width="7" c_height="7" title="U1_1" c_shape="RECT" pasteexpansion="0" solderexpansion="0.4"><polygon  c_etype="pad_shell" points="4252 3606.4843 4259 3606.4843 4259 3613.4843 4252 3613.4843" layerid="11" stroke-width="0" /><circle c_etype="pad_hole" cx="4255.5" cy="3609.9843" r="2.2" layerid="11" stroke-width="0"/></g><g c_partid="part_pad" c_etype="pinpart" c_origin="4255.5,3809.984" layerid="11" number="20" net="U1_20" plated ="Y"  id="gge198" locked="0" c_rotation="0" c_width="7" c_height="7" title="U1_20" c_shape="ELLIPSE" pasteexpansion="0" solderexpansion="0.4"><ellipse c_etype="pad_shell" cx="4255.5" cy="3809.984" rx="3.5" ry="3.5" layerid="11" stroke-width="0"/><circle c_etype="pad_hole" cx="4255.5" cy="3809.9843" r="2.2" layerid="11" stroke-width="0"/></g><g c_partid="part_pad" c_etype="pinpart" c_origin="4255.5,3799.984" layerid="11" number="19" net="U1_19" plated ="Y"  id="gge203" locked="0" c_rotation="0" c_width="7" c_height="7" title="U1_19" c_shape="ELLIPSE" pasteexpansion="0" solderexpansion="0.4"><ellipse c_etype="pad_shell" cx="4255.5" cy="3799.984" rx="3.5" ry="3.5" layerid="11" stroke-width="0"/><circle c_etype="pad_hole" cx="4255.5" cy="3799.9843" r="2.2" layerid="11" stroke-width="0"/></g><g c_partid="part_pad" c_etype="pinpart" c_origin="4255.5,3789.984" layerid="11" number="18" net="U1_18" plated ="Y"  id="gge208" locked="0" c_rotation="0" c_width="7" c_height="7" title="U1_18" c_shape="ELLIPSE" pasteexpansion="0" solderexpansion="0.4"><ellipse c_etype="pad_shell" cx="4255.5" cy="3789.984" rx="3.5" ry="3.5" layerid="11" stroke-width="0"/><circle c_etype="pad_hole" cx="4255.5" cy="3789.9843" r="2.2" layerid="11" stroke-width="0"/></g><g c_partid="part_pad" c_etype="pinpart" c_origin="4255.5,3779.984" layerid="11" number="17" net="U1_17" plated ="Y"  id="gge213" locked="0" c_rotation="0" c_width="7" c_height="7" title="U1_17" c_shape="ELLIPSE" pasteexpansion="0" solderexpansion="0.4"><ellipse c_etype="pad_shell" cx="4255.5" cy="3779.984" rx="3.5" ry="3.5" layerid="11" stroke-width="0"/><circle c_etype="pad_hole" cx="4255.5" cy="3779.9843" r="2.2" layerid="11" stroke-width="0"/></g><g c_partid="part_pad" c_etype="pinpart" c_origin="4255.5,3769.984" layerid="11" number="16" net="U1_16" plated ="Y"  id="gge218" locked="0" c_rotation="0" c_width="7" c_height="7" title="U1_16" c_shape="ELLIPSE" pasteexpansion="0" solderexpansion="0.4"><ellipse c_etype="pad_shell" cx="4255.5" cy="3769.984" rx="3.5" ry="3.5" layerid="11" stroke-width="0"/><circle c_etype="pad_hole" cx="4255.5" cy="3769.9843" r="2.2" layerid="11" stroke-width="0"/></g><g c_partid="part_pad" c_etype="pinpart" c_origin="4255.5,3759.984" layerid="11" number="15" net="U1_15" plated ="Y"  id="gge223" locked="0" c_rotation="0" c_width="7" c_height="7" title="U1_15" c_shape="ELLIPSE" pasteexpansion="0" solderexpansion="0.4"><ellipse c_etype="pad_shell" cx="4255.5" cy="3759.984" rx="3.5" ry="3.5" layerid="11" stroke-width="0"/><circle c_etype="pad_hole" cx="4255.5" cy="3759.9843" r="2.2" layerid="11" stroke-width="0"/></g><g c_partid="part_pad" c_etype="pinpart" c_origin="4255.5,3749.984" layerid="11" number="14" net="U1_14" plated ="Y"  id="gge228" locked="0" c_rotation="0" c_width="7" c_height="7" title="U1_14" c_shape="ELLIPSE" pasteexpansion="0" solderexpansion="0.4"><ellipse c_etype="pad_shell" cx="4255.5" cy="3749.984" rx="3.5" ry="3.5" layerid="11" stroke-width="0"/><circle c_etype="pad_hole" cx="4255.5" cy="3749.9843" r="2.2" layerid="11" stroke-width="0"/></g><g c_partid="part_pad" c_etype="pinpart" c_origin="4255.5,3739.984" layerid="11" number="13" net="U1_13" plated ="Y"  id="gge233" locked="0" c_rotation="0" c_width="7" c_height="7" title="U1_13" c_shape="ELLIPSE" pasteexpansion="0" solderexpansion="0.4"><ellipse c_etype="pad_shell" cx="4255.5" cy="3739.984" rx="3.5" ry="3.5" layerid="11" stroke-width="0"/><circle c_etype="pad_hole" cx="4255.5" cy="3739.9843" r="2.2" layerid="11" stroke-width="0"/></g><g c_partid="part_pad" c_etype="pinpart" c_origin="4255.5,3729.984" layerid="11" number="12" net="U1_12" plated ="Y"  id="gge238" locked="0" c_rotation="0" c_width="7" c_height="7" title="U1_12" c_shape="ELLIPSE" pasteexpansion="0" solderexpansion="0.4"><ellipse c_etype="pad_shell" cx="4255.5" cy="3729.984" rx="3.5" ry="3.5" layerid="11" stroke-width="0"/><circle c_etype="pad_hole" cx="4255.5" cy="3729.9843" r="2.2" layerid="11" stroke-width="0"/></g><g c_partid="part_pad" c_etype="pinpart" c_origin="4255.5,3719.984" layerid="11" number="11" net="U1_11" plated ="Y"  id="gge243" locked="0" c_rotation="0" c_width="7" c_height="7" title="U1_11" c_shape="RECT" pasteexpansion="0" solderexpansion="0.4"><polygon  c_etype="pad_shell" points="4252 3716.4843 4259 3716.4843 4259 3723.4843 4252 3723.4843" layerid="11" stroke-width="0" /><circle c_etype="pad_hole" cx="4255.5" cy="3719.9843" r="2.2" layerid="11" stroke-width="0"/></g><g c_partid="part_pad" c_etype="pinpart" c_origin="4165.5,3719.984" layerid="11" number="31" net="U1_31" plated ="Y"  id="gge248" locked="0" c_rotation="0" c_width="7" c_height="7" title="U1_31" c_shape="RECT" pasteexpansion="0" solderexpansion="0.4"><polygon  c_etype="pad_shell" points="4162 3716.4843 4169 3716.4843 4169 3723.4843 4162 3723.4843" layerid="11" stroke-width="0" /><circle c_etype="pad_hole" cx="4165.5" cy="3719.9843" r="2.2" layerid="11" stroke-width="0"/></g><g c_partid="part_pad" c_etype="pinpart" c_origin="4165.5,3729.984" layerid="11" number="32" net="U1_32" plated ="Y"  id="gge253" locked="0" c_rotation="0" c_width="7" c_height="7" title="U1_32" c_shape="ELLIPSE" pasteexpansion="0" solderexpansion="0.4"><ellipse c_etype="pad_shell" cx="4165.5" cy="3729.984" rx="3.5" ry="3.5" layerid="11" stroke-width="0"/><circle c_etype="pad_hole" cx="4165.5" cy="3729.9843" r="2.2" layerid="11" stroke-width="0"/></g><g c_partid="part_pad" c_etype="pinpart" c_origin="4165.5,3739.984" layerid="11" number="33" net="U1_33" plated ="Y"  id="gge258" locked="0" c_rotation="0" c_width="7" c_height="7" title="U1_33" c_shape="ELLIPSE" pasteexpansion="0" solderexpansion="0.4"><ellipse c_etype="pad_shell" cx="4165.5" cy="3739.984" rx="3.5" ry="3.5" layerid="11" stroke-width="0"/><circle c_etype="pad_hole" cx="4165.5" cy="3739.9843" r="2.2" layerid="11" stroke-width="0"/></g><g c_partid="part_pad" c_etype="pinpart" c_origin="4165.5,3749.984" layerid="11" number="34" net="U1_34" plated ="Y"  id="gge263" locked="0" c_rotation="0" c_width="7" c_height="7" title="U1_34" c_shape="ELLIPSE" pasteexpansion="0" solderexpansion="0.4"><ellipse c_etype="pad_shell" cx="4165.5" cy="3749.984" rx="3.5" ry="3.5" layerid="11" stroke-width="0"/><circle c_etype="pad_hole" cx="4165.5" cy="3749.9843" r="2.2" layerid="11" stroke-width="0"/></g><g c_partid="part_pad" c_etype="pinpart" c_origin="4165.5,3759.984" layerid="11" number="35" net="U1_35" plated ="Y"  id="gge268" locked="0" c_rotation="0" c_width="7" c_height="7" title="U1_35" c_shape="ELLIPSE" pasteexpansion="0" solderexpansion="0.4"><ellipse c_etype="pad_shell" cx="4165.5" cy="3759.984" rx="3.5" ry="3.5" layerid="11" stroke-width="0"/><circle c_etype="pad_hole" cx="4165.5" cy="3759.9843" r="2.2" layerid="11" stroke-width="0"/></g><g c_partid="part_pad" c_etype="pinpart" c_origin="4165.5,3769.984" layerid="11" number="36" net="U1_36" plated ="Y"  id="gge273" locked="0" c_rotation="0" c_width="7" c_height="7" title="U1_36" c_shape="ELLIPSE" pasteexpansion="0" solderexpansion="0.4"><ellipse c_etype="pad_shell" cx="4165.5" cy="3769.984" rx="3.5" ry="3.5" layerid="11" stroke-width="0"/><circle c_etype="pad_hole" cx="4165.5" cy="3769.9843" r="2.2" layerid="11" stroke-width="0"/></g><g c_partid="part_pad" c_etype="pinpart" c_origin="4165.5,3779.984" layerid="11" number="37" net="U1_37" plated ="Y"  id="gge278" locked="0" c_rotation="0" c_width="7" c_height="7" title="U1_37" c_shape="ELLIPSE" pasteexpansion="0" solderexpansion="0.4"><ellipse c_etype="pad_shell" cx="4165.5" cy="3779.984" rx="3.5" ry="3.5" layerid="11" stroke-width="0"/><circle c_etype="pad_hole" cx="4165.5" cy="3779.9843" r="2.2" layerid="11" stroke-width="0"/></g><g c_partid="part_pad" c_etype="pinpart" c_origin="4165.5,3789.984" layerid="11" number="38" net="U1_38" plated ="Y"  id="gge283" locked="0" c_rotation="0" c_width="7" c_height="7" title="U1_38" c_shape="ELLIPSE" pasteexpansion="0" solderexpansion="0.4"><ellipse c_etype="pad_shell" cx="4165.5" cy="3789.984" rx="3.5" ry="3.5" layerid="11" stroke-width="0"/><circle c_etype="pad_hole" cx="4165.5" cy="3789.9843" r="2.2" layerid="11" stroke-width="0"/></g><g c_partid="part_pad" c_etype="pinpart" c_origin="4165.5,3799.984" layerid="11" number="39" net="U1_39" plated ="Y"  id="gge288" locked="0" c_rotation="0" c_width="7" c_height="7" title="U1_39" c_shape="ELLIPSE" pasteexpansion="0" solderexpansion="0.4"><ellipse c_etype="pad_shell" cx="4165.5" cy="3799.984" rx="3.5" ry="3.5" layerid="11" stroke-width="0"/><circle c_etype="pad_hole" cx="4165.5" cy="3799.9843" r="2.2" layerid="11" stroke-width="0"/></g><g c_partid="part_pad" c_etype="pinpart" c_origin="4165.5,3809.984" layerid="11" number="40" net="U1_40" plated ="Y"  id="gge293" locked="0" c_rotation="0" c_width="6.6929" c_height="6.6929" title="U1_40" c_shape="ELLIPSE" pasteexpansion="0" solderexpansion="0.4"><ellipse c_etype="pad_shell" cx="4165.5" cy="3809.984" rx="3.34645" ry="3.34645" layerid="11" stroke-width="0"/><circle c_etype="pad_hole" cx="4165.5" cy="3809.9843" r="2.165" layerid="11" stroke-width="0"/></g><g c_partid="part_pad" c_etype="pinpart" c_origin="4132.5,3774.5" layerid="11" number="1" net="R2_1" plated ="Y"  id="gge311" locked="0" c_rotation="0" c_width="6.2992" c_height="6.2992" title="R2_1" c_shape="ELLIPSE" pasteexpansion="0" solderexpansion="0.4"><ellipse c_etype="pad_shell" cx="4132.5" cy="3774.5" rx="3.1496" ry="3.1496" layerid="11" stroke-width="0"/><circle c_etype="pad_hole" cx="4132.5" cy="3774.5" r="1.9685" layerid="11" stroke-width="0"/></g><g c_partid="part_pad" c_etype="pinpart" c_origin="4142.5,3774.5" layerid="11" number="2" net="U1_21" plated ="Y"  id="gge316" locked="0" c_rotation="0" c_width="6.2992" c_height="6.2992" title="U1_21" c_shape="ELLIPSE" pasteexpansion="0" solderexpansion="0.4"><ellipse c_etype="pad_shell" cx="4142.5" cy="3774.5" rx="3.1496" ry="3.1496" layerid="11" stroke-width="0"/><circle c_etype="pad_hole" cx="4142.5" cy="3774.5" r="1.9685" layerid="11" stroke-width="0"/></g><g c_partid="part_pad" c_etype="pinpart" c_origin="4105,3775" layerid="11" number="1" net="R1_2" plated ="Y"  id="gge334" locked="0" c_rotation="180" c_width="6.2992" c_height="6.2992" title="R1_2" c_shape="ELLIPSE" pasteexpansion="0" solderexpansion="0.4"><ellipse c_etype="pad_shell" cx="4105" cy="3775" rx="3.1496" ry="3.1496" layerid="11" stroke-width="0"/><circle c_etype="pad_hole" cx="4105" cy="3775" r="1.9685" layerid="11" stroke-width="0"/></g><g c_partid="part_pad" c_etype="pinpart" c_origin="4095,3775" layerid="11" number="2" net="U1_21" plated ="Y"  id="gge339" locked="0" c_rotation="180" c_width="6.2992" c_height="6.2992" title="U1_21" c_shape="ELLIPSE" pasteexpansion="0" solderexpansion="0.4"><ellipse c_etype="pad_shell" cx="4095" cy="3775" rx="3.1496" ry="3.1496" layerid="11" stroke-width="0"/><circle c_etype="pad_hole" cx="4095" cy="3775" r="1.9685" layerid="11" stroke-width="0"/></g><g c_partid="part_pad" c_etype="pinpart" c_origin="4329,3584.5" layerid="11" number="1" net="U1_1" plated ="Y"  id="gge354" locked="0" c_rotation="270" c_width="11.811" c_height="11.811" title="U1_1" c_shape="RECT" pasteexpansion="0" solderexpansion="0.4"><polygon  c_etype="pad_shell" points="4334.9055 3578.5945 4334.9055 3590.4055 4323.0945 3590.4055 4323.0945 3578.5945" layerid="11" stroke-width="0" /><circle c_etype="pad_hole" cx="4329" cy="3584.5" r="3.3465" layerid="11" stroke-width="0"/></g><g c_partid="part_pad" c_etype="pinpart" c_origin="4329,3604.5" layerid="11" number="2" net="U1_2" plated ="Y"  id="gge359" locked="0" c_rotation="270" c_width="11.811" c_height="11.811" title="U1_2" c_shape="ELLIPSE" pasteexpansion="0" solderexpansion="0.4"><ellipse c_etype="pad_shell" cx="4329" cy="3604.5" rx="5.9055" ry="5.9055" layerid="11" stroke-width="0"/><circle c_etype="pad_hole" cx="4329" cy="3604.5" r="3.3465" layerid="11" stroke-width="0"/></g><g c_partid="part_pad" c_etype="pinpart" c_origin="4329,3624.5" layerid="11" number="3" net="U1_4" plated ="Y"  id="gge364" locked="0" c_rotation="270" c_width="11.811" c_height="11.811" title="U1_4" c_shape="ELLIPSE" pasteexpansion="0" solderexpansion="0.4"><ellipse c_etype="pad_shell" cx="4329" cy="3624.5" rx="5.9055" ry="5.9055" layerid="11" stroke-width="0"/><circle c_etype="pad_hole" cx="4329" cy="3624.5" r="3.3465" layerid="11" stroke-width="0"/></g><g c_partid="part_pad" c_etype="pinpart" c_origin="4329,3644.5" layerid="11" number="4" net="U1_3" plated ="Y"  id="gge369" locked="0" c_rotation="270" c_width="11.811" c_height="11.811" title="U1_3" c_shape="ELLIPSE" pasteexpansion="0" solderexpansion="0.4"><ellipse c_etype="pad_shell" cx="4329" cy="3644.5" rx="5.9055" ry="5.9055" layerid="11" stroke-width="0"/><circle c_etype="pad_hole" cx="4329" cy="3644.5" r="3.3465" layerid="11" stroke-width="0"/></g><g c_partid="part_pad" c_etype="pinpart" c_origin="4070,3640.5" layerid="11" number="1" net="U1_40" plated ="Y"  id="gge384" locked="0" c_rotation="0" c_width="11.811" c_height="11.811" title="U1_40" c_shape="RECT" pasteexpansion="0" solderexpansion="0.4"><polygon  c_etype="pad_shell" points="4064.0945 3634.5945 4075.9055 3634.5945 4075.9055 3646.4055 4064.0945 3646.4055" layerid="11" stroke-width="0" /><circle c_etype="pad_hole" cx="4070" cy="3640.5" r="3.3465" layerid="11" stroke-width="0"/></g><g c_partid="part_pad" c_etype="pinpart" c_origin="4090,3640.5" layerid="11" number="2" net="U1_21" plated ="Y"  id="gge389" locked="0" c_rotation="0" c_width="11.811" c_height="11.811" title="U1_21" c_shape="ELLIPSE" pasteexpansion="0" solderexpansion="0.4"><ellipse c_etype="pad_shell" cx="4090" cy="3640.5" rx="5.9055" ry="5.9055" layerid="11" stroke-width="0"/><circle c_etype="pad_hole" cx="4090" cy="3640.5" r="3.3465" layerid="11" stroke-width="0"/></g><g c_partid="part_pad" c_etype="pinpart" c_origin="4110,3640.5" layerid="11" number="3" net="CN2_3" plated ="Y"  id="gge394" locked="0" c_rotation="0" c_width="11.811" c_height="11.811" title="CN2_3" c_shape="ELLIPSE" pasteexpansion="0" solderexpansion="0.4"><ellipse c_etype="pad_shell" cx="4110" cy="3640.5" rx="5.9055" ry="5.9055" layerid="11" stroke-width="0"/><circle c_etype="pad_hole" cx="4110" cy="3640.5" r="3.3465" layerid="11" stroke-width="0"/></g><g c_partid="part_pad" c_etype="pinpart" c_origin="4130,3640.5" layerid="11" number="4" net="U1_24" plated ="Y"  id="gge399" locked="0" c_rotation="0" c_width="11.811" c_height="11.811" title="U1_24" c_shape="ELLIPSE" pasteexpansion="0" solderexpansion="0.4"><ellipse c_etype="pad_shell" cx="4130" cy="3640.5" rx="5.9055" ry="5.9055" layerid="11" stroke-width="0"/><circle c_etype="pad_hole" cx="4130" cy="3640.5" r="3.3465" layerid="11" stroke-width="0"/></g><g c_partid="part_pad" c_etype="pinpart" c_origin="4071.5,3684.5" layerid="11" number="1" net="U1_40" plated ="Y"  id="gge414" locked="0" c_rotation="0" c_width="11.811" c_height="11.811" title="U1_40" c_shape="RECT" pasteexpansion="0" solderexpansion="0.4"><polygon  c_etype="pad_shell" points="4065.5945 3678.5945 4077.4055 3678.5945 4077.4055 3690.4055 4065.5945 3690.4055" layerid="11" stroke-width="0" /><circle c_etype="pad_hole" cx="4071.5" cy="3684.5" r="3.3465" layerid="11" stroke-width="0"/></g><g c_partid="part_pad" c_etype="pinpart" c_origin="4091.5,3684.5" layerid="11" number="2" net="U1_21" plated ="Y"  id="gge419" locked="0" c_rotation="0" c_width="11.811" c_height="11.811" title="U1_21" c_shape="ELLIPSE" pasteexpansion="0" solderexpansion="0.4"><ellipse c_etype="pad_shell" cx="4091.5" cy="3684.5" rx="5.9055" ry="5.9055" layerid="11" stroke-width="0"/><circle c_etype="pad_hole" cx="4091.5" cy="3684.5" r="3.3465" layerid="11" stroke-width="0"/></g><g c_partid="part_pad" c_etype="pinpart" c_origin="4111.5,3684.5" layerid="11" number="3" net="CN4_3" plated ="Y"  id="gge424" locked="0" c_rotation="0" c_width="11.811" c_height="11.811" title="CN4_3" c_shape="ELLIPSE" pasteexpansion="0" solderexpansion="0.4"><ellipse c_etype="pad_shell" cx="4111.5" cy="3684.5" rx="5.9055" ry="5.9055" layerid="11" stroke-width="0"/><circle c_etype="pad_hole" cx="4111.5" cy="3684.5" r="3.3465" layerid="11" stroke-width="0"/></g><g c_partid="part_pad" c_etype="pinpart" c_origin="4131.5,3684.5" layerid="11" number="4" net="U1_25" plated ="Y"  id="gge429" locked="0" c_rotation="0" c_width="11.811" c_height="11.811" title="U1_25" c_shape="ELLIPSE" pasteexpansion="0" solderexpansion="0.4"><ellipse c_etype="pad_shell" cx="4131.5" cy="3684.5" rx="5.9055" ry="5.9055" layerid="11" stroke-width="0"/><circle c_etype="pad_hole" cx="4131.5" cy="3684.5" r="3.3465" layerid="11" stroke-width="0"/></g><g c_partid="part_pad" c_etype="pinpart" c_origin="4093,3719.5" layerid="11" number="1" net="U1_9" plated ="Y"  id="gge450" locked="0" c_rotation="270" c_width="7.4" c_height="7.4" title="U1_9" c_shape="ELLIPSE" pasteexpansion="0" solderexpansion="0.4"><ellipse c_etype="pad_shell" cx="4093" cy="3719.5" rx="3.7" ry="3.7" layerid="11" stroke-width="0"/><circle c_etype="pad_hole" cx="4093" cy="3719.5" r="1.77" layerid="11" stroke-width="0"/></g><g c_partid="part_pad" c_etype="pinpart" c_origin="4093,3749.5" layerid="11" number="2" net="R1_2" plated ="Y"  id="gge455" locked="0" c_rotation="270" c_width="7.4" c_height="7.4" title="R1_2" c_shape="ELLIPSE" pasteexpansion="0" solderexpansion="0.4"><ellipse c_etype="pad_shell" cx="4093" cy="3749.5" rx="3.7" ry="3.7" layerid="11" stroke-width="0"/><circle c_etype="pad_hole" cx="4093" cy="3749.5" r="1.77" layerid="11" stroke-width="0"/></g><g c_partid="part_pad" c_etype="pinpart" c_origin="4118.5,3744.5" layerid="11" number="1" net="R2_1" plated ="Y"  id="gge476" locked="0" c_rotation="0" c_width="7.4" c_height="7.4" title="R2_1" c_shape="ELLIPSE" pasteexpansion="0" solderexpansion="0.4"><ellipse c_etype="pad_shell" cx="4118.5" cy="3744.5" rx="3.7" ry="3.7" layerid="11" stroke-width="0"/><circle c_etype="pad_hole" cx="4118.5" cy="3744.5" r="1.77" layerid="11" stroke-width="0"/></g><g c_partid="part_pad" c_etype="pinpart" c_origin="4148.5,3744.5" layerid="11" number="2" net="U1_10" plated ="Y"  id="gge481" locked="0" c_rotation="0" c_width="7.4" c_height="7.4" title="U1_10" c_shape="ELLIPSE" pasteexpansion="0" solderexpansion="0.4"><ellipse c_etype="pad_shell" cx="4148.5" cy="3744.5" rx="3.7" ry="3.7" layerid="11" stroke-width="0"/><circle c_etype="pad_hole" cx="4148.5" cy="3744.5" r="1.77" layerid="11" stroke-width="0"/></g><polyline points="4286.0005 3833.0693 4346 3833.0693" stroke-width="1"  stroke-linecap="round" fill="none" layerid="3" net="" id="gge7" locked="0" /><polyline points="4286.0005 3800.3921 4346 3800.3921" stroke-width="1"  stroke-linecap="round" fill="none" layerid="3" net="" id="gge8" locked="0" /><polyline points="4346 3833.072 4346 3800.3921" stroke-width="1"  stroke-linecap="round" fill="none" layerid="3" net="" id="gge9" locked="0" /><polyline points="4286.0006 3833.0693 4286.0006 3800.3922" stroke-width="1"  stroke-linecap="round" fill="none" layerid="3" net="" id="gge10" locked="0" /><polyline points="4297.0005 3788.5693 4357 3788.5693" stroke-width="1"  stroke-linecap="round" fill="none" layerid="3" net="" id="gge32" locked="0" /><polyline points="4297.0005 3755.8921 4357 3755.8921" stroke-width="1"  stroke-linecap="round" fill="none" layerid="3" net="" id="gge33" locked="0" /><polyline points="4357 3788.572 4357 3755.8921" stroke-width="1"  stroke-linecap="round" fill="none" layerid="3" net="" id="gge34" locked="0" /><polyline points="4297.0006 3788.5693 4297.0006 3755.8922" stroke-width="1"  stroke-linecap="round" fill="none" layerid="3" net="" id="gge35" locked="0" /><polyline points="4315.0828 3743.1813 4315.0828 3670.8189" stroke-width="1"  stroke-linecap="round" fill="none" layerid="3" net="" id="gge57" locked="0" /><polyline points="4342.6418 3743.1813 4342.6418 3670.8189" stroke-width="1"  stroke-linecap="round" fill="none" layerid="3" net="" id="gge58" locked="0" /><polyline points="4342.6418 3670.819 4315.0828 3670.8189" stroke-width="1"  stroke-linecap="round" fill="none" layerid="3" net="" id="gge59" locked="0" /><polyline points="4342.6418 3743.181 4315.0827 3743.181" stroke-width="1"  stroke-linecap="round" fill="none" layerid="3" net="" id="gge60" locked="0" /><polyline points="4191 3813.921 4230.37 3813.921 4230.37 3835.968 4191 3835.968 4191 3813.921" stroke-width="1"  stroke-linecap="round" fill="none" layerid="3" net="" id="gge92" locked="0" /><polyline points="4160.5 3584 4260.5 3584 4260.5 3835.969 4160.5 3835.969 4160.5 3584" stroke-width="1"  stroke-linecap="round" fill="none" layerid="3" net="" id="gge93" locked="0" /><polyline points="4180.5 3604 4240.5 3604 4240.5 3694 4180.5 3694 4180.5 3604" stroke-width="1"  stroke-linecap="round" fill="none" layerid="3" net="" id="gge94" locked="0" /><polyline points="4180.5 3604 4240.5 3604 4240.5 3624 4180.5 3624 4180.5 3604" stroke-width="1"  stroke-linecap="round" fill="none" layerid="3" net="" id="gge95" locked="0" /><polyline points="4147.5 3782 4147.5 3767" stroke-width="1"  stroke-linecap="round" fill="none" layerid="3" net="" id="gge304" locked="0" /><polyline points="4132 3768.5 4135 3768.5" stroke-width="1"  stroke-linecap="round" fill="none" layerid="3" net="" id="gge305" locked="0" /><polyline points="4133.5 3770 4133.5 3767" stroke-width="1"  stroke-linecap="round" fill="none" layerid="3" net="" id="gge306" locked="0" /><polyline points="4090 3767.5 4090 3782.5" stroke-width="1"  stroke-linecap="round" fill="none" layerid="3" net="" id="gge327" locked="0" /><polyline points="4105.5 3781 4102.5 3781" stroke-width="1"  stroke-linecap="round" fill="none" layerid="3" net="" id="gge328" locked="0" /><polyline points="4104 3779.5 4104 3782.5" stroke-width="1"  stroke-linecap="round" fill="none" layerid="3" net="" id="gge329" locked="0" /><polyline points="4310.9307 3658.2402 4343.6079 3658.2402" stroke-width="1"  stroke-linecap="round" fill="none" layerid="3" net="" id="gge350" locked="0" /><polyline points="4310.9307 3570.7604 4343.6078 3570.7604" stroke-width="1"  stroke-linecap="round" fill="none" layerid="3" net="" id="gge351" locked="0" /><polyline points="4310.9307 3570.7605 4310.9307 3658.2402" stroke-width="1"  stroke-linecap="round" fill="none" layerid="3" net="" id="gge352" locked="0" /><polyline points="4343.6079 3570.7605 4343.6079 3658.2402" stroke-width="1"  stroke-linecap="round" fill="none" layerid="3" net="" id="gge353" locked="0" /><polyline points="4143.7402 3658.5693 4143.7402 3625.8921" stroke-width="1"  stroke-linecap="round" fill="none" layerid="3" net="" id="gge380" locked="0" /><polyline points="4056.2604 3658.5693 4056.2604 3625.8922" stroke-width="1"  stroke-linecap="round" fill="none" layerid="3" net="" id="gge381" locked="0" /><polyline points="4056.2605 3658.5693 4143.7402 3658.5693" stroke-width="1"  stroke-linecap="round" fill="none" layerid="3" net="" id="gge382" locked="0" /><polyline points="4056.2605 3625.8921 4143.7402 3625.8921" stroke-width="1"  stroke-linecap="round" fill="none" layerid="3" net="" id="gge383" locked="0" /><polyline points="4145.2402 3702.5693 4145.2402 3669.8921" stroke-width="1"  stroke-linecap="round" fill="none" layerid="3" net="" id="gge410" locked="0" /><polyline points="4057.7604 3702.5693 4057.7604 3669.8922" stroke-width="1"  stroke-linecap="round" fill="none" layerid="3" net="" id="gge411" locked="0" /><polyline points="4057.7605 3702.5693 4145.2402 3702.5693" stroke-width="1"  stroke-linecap="round" fill="none" layerid="3" net="" id="gge412" locked="0" /><polyline points="4057.7605 3669.8921 4145.2402 3669.8921" stroke-width="1"  stroke-linecap="round" fill="none" layerid="3" net="" id="gge413" locked="0" /><polyline points="4093 3724.5 4093 3723.5" stroke-width="1"  stroke-linecap="round" fill="none" layerid="3" net="" id="gge440" locked="0" /><polyline points="4093 3744.5 4093 3745.5" stroke-width="1"  stroke-linecap="round" fill="none" layerid="3" net="" id="gge441" locked="0" /><polyline points="4093 3724.5 4096 3724.5" stroke-width="1"  stroke-linecap="round" fill="none" layerid="3" net="" id="gge442" locked="0" /><polyline points="4090 3724.5 4093 3724.5" stroke-width="1"  stroke-linecap="round" fill="none" layerid="3" net="" id="gge443" locked="0" /><polyline points="4090 3744.5 4090 3724.5" stroke-width="1"  stroke-linecap="round" fill="none" layerid="3" net="" id="gge444" locked="0" /><polyline points="4093 3744.5 4090 3744.5" stroke-width="1"  stroke-linecap="round" fill="none" layerid="3" net="" id="gge445" locked="0" /><polyline points="4096 3744.5 4093 3744.5" stroke-width="1"  stroke-linecap="round" fill="none" layerid="3" net="" id="gge446" locked="0" /><polyline points="4096 3724.5 4096 3744.5" stroke-width="1"  stroke-linecap="round" fill="none" layerid="3" net="" id="gge447" locked="0" /><polyline points="4123.5 3744.5 4122.5 3744.5" stroke-width="1"  stroke-linecap="round" fill="none" layerid="3" net="" id="gge466" locked="0" /><polyline points="4143.5 3744.5 4144.5 3744.5" stroke-width="1"  stroke-linecap="round" fill="none" layerid="3" net="" id="gge467" locked="0" /><polyline points="4123.5 3744.5 4123.5 3741.5" stroke-width="1"  stroke-linecap="round" fill="none" layerid="3" net="" id="gge468" locked="0" /><polyline points="4123.5 3747.5 4123.5 3744.5" stroke-width="1"  stroke-linecap="round" fill="none" layerid="3" net="" id="gge469" locked="0" /><polyline points="4143.5 3747.5 4123.5 3747.5" stroke-width="1"  stroke-linecap="round" fill="none" layerid="3" net="" id="gge470" locked="0" /><polyline points="4143.5 3744.5 4143.5 3747.5" stroke-width="1"  stroke-linecap="round" fill="none" layerid="3" net="" id="gge471" locked="0" /><polyline points="4143.5 3741.5 4143.5 3744.5" stroke-width="1"  stroke-linecap="round" fill="none" layerid="3" net="" id="gge472" locked="0" /><polyline points="4123.5 3741.5 4143.5 3741.5" stroke-width="1"  stroke-linecap="round" fill="none" layerid="3" net="" id="gge473" locked="0" /><g c_partid="part_pcbtext" c_etype="" c_origin="4316,3792" c_rotation="0" c_mirror="0" id="gge3" locked="0" layerid="3" c_shapetype="group" display="none"><path c_fontsize="4.5" c_fontfamily="" c_text="WJ2EDGV-5.08-3P" d="M 4316 3787.46 L 4317.02 3791.75 M 4318.05 3787.46 L 4317.02 3791.75 M 4318.05 3787.46 L 4319.07 3791.75 M 4320.09 3787.46 L 4319.07 3791.75 M 4323.49 3787.46 L 4323.49 3790.73 L 4323.28 3791.35 L 4323.08 3791.55 L 4322.67 3791.75 L 4322.26 3791.75 L 4321.85 3791.55 L 4321.65 3791.35 L 4321.44 3790.73 L 4321.44 3790.32 M 4325.04 3788.48 L 4325.04 3788.28 L 4325.25 3787.87 L 4325.45 3787.66 L 4325.86 3787.46 L 4326.68 3787.46 L 4327.09 3787.66 L 4327.29 3787.87 L 4327.5 3788.28 L 4327.5 3788.69 L 4327.29 3789.1 L 4326.88 3789.71 L 4324.84 3791.75 L 4327.7 3791.75 M 4329.05 3787.46 L 4329.05 3791.75 M 4329.05 3787.46 L 4331.71 3787.46 M 4329.05 3789.5 L 4330.69 3789.5 M 4329.05 3791.75 L 4331.71 3791.75 M 4333.06 3787.46 L 4333.06 3791.75 M 4333.06 3787.46 L 4334.49 3787.46 L 4335.1 3787.66 L 4335.51 3788.07 L 4335.72 3788.48 L 4335.92 3789.1 L 4335.92 3790.12 L 4335.72 3790.73 L 4335.51 3791.14 L 4335.1 3791.55 L 4334.49 3791.75 L 4333.06 3791.75 M 4340.34 3788.48 L 4340.14 3788.07 L 4339.73 3787.66 L 4339.32 3787.46 L 4338.5 3787.46 L 4338.09 3787.66 L 4337.68 3788.07 L 4337.48 3788.48 L 4337.27 3789.1 L 4337.27 3790.12 L 4337.48 3790.73 L 4337.68 3791.14 L 4338.09 3791.55 L 4338.5 3791.75 L 4339.32 3791.75 L 4339.73 3791.55 L 4340.14 3791.14 L 4340.34 3790.73 L 4340.34 3790.12 M 4339.32 3790.12 L 4340.34 3790.12 M 4341.69 3787.46 L 4343.33 3791.75 M 4344.96 3787.46 L 4343.33 3791.75 M 4346.31 3789.91 L 4350 3789.91 M 4353.8 3787.46 L 4351.75 3787.46 L 4351.55 3789.3 L 4351.75 3789.1 L 4352.37 3788.89 L 4352.98 3788.89 L 4353.6 3789.1 L 4354 3789.5 L 4354.21 3790.12 L 4354.21 3790.53 L 4354 3791.14 L 4353.6 3791.55 L 4352.98 3791.75 L 4352.37 3791.75 L 4351.75 3791.55 L 4351.55 3791.35 L 4351.35 3790.94 M 4355.76 3790.73 L 4355.56 3790.94 L 4355.76 3791.14 L 4355.97 3790.94 L 4355.76 3790.73 M 4358.55 3787.46 L 4357.93 3787.66 L 4357.52 3788.28 L 4357.32 3789.3 L 4357.32 3789.91 L 4357.52 3790.94 L 4357.93 3791.55 L 4358.55 3791.75 L 4358.95 3791.75 L 4359.57 3791.55 L 4359.98 3790.94 L 4360.18 3789.91 L 4360.18 3789.3 L 4359.98 3788.28 L 4359.57 3787.66 L 4358.95 3787.46 L 4358.55 3787.46 M 4362.55 3787.46 L 4361.94 3787.66 L 4361.74 3788.07 L 4361.74 3788.48 L 4361.94 3788.89 L 4362.35 3789.1 L 4363.17 3789.3 L 4363.78 3789.5 L 4364.19 3789.91 L 4364.4 3790.32 L 4364.4 3790.94 L 4364.19 3791.35 L 4363.99 3791.55 L 4363.37 3791.75 L 4362.55 3791.75 L 4361.94 3791.55 L 4361.74 3791.35 L 4361.53 3790.94 L 4361.53 3790.32 L 4361.74 3789.91 L 4362.15 3789.5 L 4362.76 3789.3 L 4363.58 3789.1 L 4363.99 3788.89 L 4364.19 3788.48 L 4364.19 3788.07 L 4363.99 3787.66 L 4363.37 3787.46 L 4362.55 3787.46 M 4365.75 3789.91 L 4369.43 3789.91 M 4371.19 3787.46 L 4373.44 3787.46 L 4372.21 3789.1 L 4372.82 3789.1 L 4373.23 3789.3 L 4373.44 3789.5 L 4373.64 3790.12 L 4373.64 3790.53 L 4373.44 3791.14 L 4373.03 3791.55 L 4372.41 3791.75 L 4371.8 3791.75 L 4371.19 3791.55 L 4370.98 3791.35 L 4370.78 3790.94 M 4374.99 3787.46 L 4374.99 3791.75 M 4374.99 3787.46 L 4376.83 3787.46 L 4377.45 3787.66 L 4377.65 3787.87 L 4377.85 3788.28 L 4377.85 3788.89 L 4377.65 3789.3 L 4377.45 3789.5 L 4376.83 3789.71 L 4374.99 3789.71" fill="none"  stroke-width="0.6" c_note="note_name" /></g><g c_partid="part_pcbtext" c_etype="" c_origin="4316,3799" c_rotation="0" c_mirror="0" id="gge5" locked="0" layerid="3" c_shapetype="group" ><path c_fontsize="4.5" c_fontfamily="" c_text="BUZZER" d="M 4316 3794.46 L 4316 3798.75 M 4316 3794.46 L 4317.84 3794.46 L 4318.45 3794.66 L 4318.66 3794.87 L 4318.86 3795.28 L 4318.86 3795.69 L 4318.66 3796.1 L 4318.45 3796.3 L 4317.84 3796.5 M 4316 3796.5 L 4317.84 3796.5 L 4318.45 3796.71 L 4318.66 3796.91 L 4318.86 3797.32 L 4318.86 3797.94 L 4318.66 3798.35 L 4318.45 3798.55 L 4317.84 3798.75 L 4316 3798.75 M 4320.21 3794.46 L 4320.21 3797.53 L 4320.42 3798.14 L 4320.83 3798.55 L 4321.44 3798.75 L 4321.85 3798.75 L 4322.46 3798.55 L 4322.87 3798.14 L 4323.08 3797.53 L 4323.08 3794.46 M 4327.29 3794.46 L 4324.43 3798.75 M 4324.43 3794.46 L 4327.29 3794.46 M 4324.43 3798.75 L 4327.29 3798.75 M 4331.5 3794.46 L 4328.64 3798.75 M 4328.64 3794.46 L 4331.5 3794.46 M 4328.64 3798.75 L 4331.5 3798.75 M 4332.85 3794.46 L 4332.85 3798.75 M 4332.85 3794.46 L 4335.51 3794.46 M 4332.85 3796.5 L 4334.49 3796.5 M 4332.85 3798.75 L 4335.51 3798.75 M 4336.86 3794.46 L 4336.86 3798.75 M 4336.86 3794.46 L 4338.7 3794.46 L 4339.32 3794.66 L 4339.52 3794.87 L 4339.73 3795.28 L 4339.73 3795.69 L 4339.52 3796.1 L 4339.32 3796.3 L 4338.7 3796.5 L 4336.86 3796.5 M 4338.3 3796.5 L 4339.73 3798.75" fill="none"  stroke-width="0.6" c_note="note_pre" /></g><g c_partid="part_pcbtext" c_etype="" c_origin="4327,3747.5" c_rotation="0" c_mirror="0" id="gge28" locked="0" layerid="3" c_shapetype="group" display="none"><path c_fontsize="4.5" c_fontfamily="" c_text="WJ2EDGV-5.08-3P" d="M 4327 3742.96 L 4328.02 3747.25 M 4329.05 3742.96 L 4328.02 3747.25 M 4329.05 3742.96 L 4330.07 3747.25 M 4331.09 3742.96 L 4330.07 3747.25 M 4334.49 3742.96 L 4334.49 3746.23 L 4334.28 3746.85 L 4334.08 3747.05 L 4333.67 3747.25 L 4333.26 3747.25 L 4332.85 3747.05 L 4332.65 3746.85 L 4332.44 3746.23 L 4332.44 3745.82 M 4336.04 3743.98 L 4336.04 3743.78 L 4336.25 3743.37 L 4336.45 3743.16 L 4336.86 3742.96 L 4337.68 3742.96 L 4338.09 3743.16 L 4338.29 3743.37 L 4338.5 3743.78 L 4338.5 3744.19 L 4338.29 3744.6 L 4337.88 3745.21 L 4335.84 3747.25 L 4338.7 3747.25 M 4340.05 3742.96 L 4340.05 3747.25 M 4340.05 3742.96 L 4342.71 3742.96 M 4340.05 3745 L 4341.69 3745 M 4340.05 3747.25 L 4342.71 3747.25 M 4344.06 3742.96 L 4344.06 3747.25 M 4344.06 3742.96 L 4345.49 3742.96 L 4346.1 3743.16 L 4346.51 3743.57 L 4346.72 3743.98 L 4346.92 3744.6 L 4346.92 3745.62 L 4346.72 3746.23 L 4346.51 3746.64 L 4346.1 3747.05 L 4345.49 3747.25 L 4344.06 3747.25 M 4351.34 3743.98 L 4351.14 3743.57 L 4350.73 3743.16 L 4350.32 3742.96 L 4349.5 3742.96 L 4349.09 3743.16 L 4348.68 3743.57 L 4348.48 3743.98 L 4348.27 3744.6 L 4348.27 3745.62 L 4348.48 3746.23 L 4348.68 3746.64 L 4349.09 3747.05 L 4349.5 3747.25 L 4350.32 3747.25 L 4350.73 3747.05 L 4351.14 3746.64 L 4351.34 3746.23 L 4351.34 3745.62 M 4350.32 3745.62 L 4351.34 3745.62 M 4352.69 3742.96 L 4354.33 3747.25 M 4355.96 3742.96 L 4354.33 3747.25 M 4357.31 3745.41 L 4361 3745.41 M 4364.8 3742.96 L 4362.75 3742.96 L 4362.55 3744.8 L 4362.75 3744.6 L 4363.37 3744.39 L 4363.98 3744.39 L 4364.6 3744.6 L 4365 3745 L 4365.21 3745.62 L 4365.21 3746.03 L 4365 3746.64 L 4364.6 3747.05 L 4363.98 3747.25 L 4363.37 3747.25 L 4362.75 3747.05 L 4362.55 3746.85 L 4362.35 3746.44 M 4366.76 3746.23 L 4366.56 3746.44 L 4366.76 3746.64 L 4366.97 3746.44 L 4366.76 3746.23 M 4369.55 3742.96 L 4368.93 3743.16 L 4368.52 3743.78 L 4368.32 3744.8 L 4368.32 3745.41 L 4368.52 3746.44 L 4368.93 3747.05 L 4369.55 3747.25 L 4369.95 3747.25 L 4370.57 3747.05 L 4370.98 3746.44 L 4371.18 3745.41 L 4371.18 3744.8 L 4370.98 3743.78 L 4370.57 3743.16 L 4369.95 3742.96 L 4369.55 3742.96 M 4373.55 3742.96 L 4372.94 3743.16 L 4372.74 3743.57 L 4372.74 3743.98 L 4372.94 3744.39 L 4373.35 3744.6 L 4374.17 3744.8 L 4374.78 3745 L 4375.19 3745.41 L 4375.4 3745.82 L 4375.4 3746.44 L 4375.19 3746.85 L 4374.99 3747.05 L 4374.37 3747.25 L 4373.55 3747.25 L 4372.94 3747.05 L 4372.74 3746.85 L 4372.53 3746.44 L 4372.53 3745.82 L 4372.74 3745.41 L 4373.15 3745 L 4373.76 3744.8 L 4374.58 3744.6 L 4374.99 3744.39 L 4375.19 3743.98 L 4375.19 3743.57 L 4374.99 3743.16 L 4374.37 3742.96 L 4373.55 3742.96 M 4376.75 3745.41 L 4380.43 3745.41 M 4382.19 3742.96 L 4384.44 3742.96 L 4383.21 3744.6 L 4383.82 3744.6 L 4384.23 3744.8 L 4384.44 3745 L 4384.64 3745.62 L 4384.64 3746.03 L 4384.44 3746.64 L 4384.03 3747.05 L 4383.41 3747.25 L 4382.8 3747.25 L 4382.19 3747.05 L 4381.98 3746.85 L 4381.78 3746.44 M 4385.99 3742.96 L 4385.99 3747.25 M 4385.99 3742.96 L 4387.83 3742.96 L 4388.45 3743.16 L 4388.65 3743.37 L 4388.85 3743.78 L 4388.85 3744.39 L 4388.65 3744.8 L 4388.45 3745 L 4387.83 3745.21 L 4385.99 3745.21" fill="none"  stroke-width="0.6" c_note="note_name" /></g><g c_partid="part_pcbtext" c_etype="" c_origin="4327,3754.5" c_rotation="0" c_mirror="0" id="gge30" locked="0" layerid="3" c_shapetype="group" ><path c_fontsize="4.5" c_fontfamily="" c_text="BUTTON" d="M 4327 3749.96 L 4327 3754.25 M 4327 3749.96 L 4328.84 3749.96 L 4329.45 3750.16 L 4329.66 3750.37 L 4329.86 3750.78 L 4329.86 3751.19 L 4329.66 3751.6 L 4329.45 3751.8 L 4328.84 3752 M 4327 3752 L 4328.84 3752 L 4329.45 3752.21 L 4329.66 3752.41 L 4329.86 3752.82 L 4329.86 3753.44 L 4329.66 3753.85 L 4329.45 3754.05 L 4328.84 3754.25 L 4327 3754.25 M 4331.21 3749.96 L 4331.21 3753.03 L 4331.42 3753.64 L 4331.83 3754.05 L 4332.44 3754.25 L 4332.85 3754.25 L 4333.46 3754.05 L 4333.87 3753.64 L 4334.08 3753.03 L 4334.08 3749.96 M 4336.86 3749.96 L 4336.86 3754.25 M 4335.43 3749.96 L 4338.29 3749.96 M 4341.07 3749.96 L 4341.07 3754.25 M 4339.64 3749.96 L 4342.5 3749.96 M 4345.08 3749.96 L 4344.67 3750.16 L 4344.26 3750.57 L 4344.06 3750.98 L 4343.85 3751.6 L 4343.85 3752.62 L 4344.06 3753.23 L 4344.26 3753.64 L 4344.67 3754.05 L 4345.08 3754.25 L 4345.9 3754.25 L 4346.31 3754.05 L 4346.72 3753.64 L 4346.92 3753.23 L 4347.13 3752.62 L 4347.13 3751.6 L 4346.92 3750.98 L 4346.72 3750.57 L 4346.31 3750.16 L 4345.9 3749.96 L 4345.08 3749.96 M 4348.48 3749.96 L 4348.48 3754.25 M 4348.48 3749.96 L 4351.34 3754.25 M 4351.34 3749.96 L 4351.34 3754.25" fill="none"  stroke-width="0.6" c_note="note_pre" /></g><g c_partid="part_pcbtext" c_etype="" c_origin="4307,3707.059" c_rotation="90" c_mirror="0" id="gge53" locked="0" layerid="3" c_shapetype="group" display="none"><path c_fontsize="4.5" c_fontfamily="" c_text="gps neo-6" d="M 4303.89 3704.609 L 4307.16 3704.609 L 4307.78 3704.809 L 4307.98 3705.009 L 4308.19 3705.419 L 4308.19 3706.039 L 4307.98 3706.449 M 4304.5 3704.609 L 4304.1 3705.009 L 4303.89 3705.419 L 4303.89 3706.039 L 4304.1 3706.449 L 4304.5 3706.859 L 4305.12 3707.059 L 4305.53 3707.059 L 4306.14 3706.859 L 4306.55 3706.449 L 4306.75 3706.039 L 4306.75 3705.419 L 4306.55 3705.009 L 4306.14 3704.609 M 4303.89 3703.259 L 4308.19 3703.259 M 4304.5 3703.259 L 4304.1 3702.849 L 4303.89 3702.439 L 4303.89 3701.819 L 4304.1 3701.409 L 4304.5 3701.009 L 4305.12 3700.799 L 4305.53 3700.799 L 4306.14 3701.009 L 4306.55 3701.409 L 4306.75 3701.819 L 4306.75 3702.439 L 4306.55 3702.849 L 4306.14 3703.259 M 4304.5 3697.199 L 4304.1 3697.409 L 4303.89 3698.019 L 4303.89 3698.629 L 4304.1 3699.249 L 4304.5 3699.449 L 4304.91 3699.249 L 4305.12 3698.839 L 4305.32 3697.809 L 4305.53 3697.409 L 4305.94 3697.199 L 4306.14 3697.199 L 4306.55 3697.409 L 4306.75 3698.019 L 4306.75 3698.629 L 4306.55 3699.249 L 4306.14 3699.449 M 4303.89 3692.699 L 4306.75 3692.699 M 4304.71 3692.699 L 4304.1 3692.089 L 4303.89 3691.679 L 4303.89 3691.059 L 4304.1 3690.659 L 4304.71 3690.449 L 4306.75 3690.449 M 4305.12 3689.099 L 4305.12 3686.649 L 4304.71 3686.649 L 4304.3 3686.849 L 4304.1 3687.059 L 4303.89 3687.459 L 4303.89 3688.079 L 4304.1 3688.489 L 4304.5 3688.899 L 4305.12 3689.099 L 4305.53 3689.099 L 4306.14 3688.899 L 4306.55 3688.489 L 4306.75 3688.079 L 4306.75 3687.459 L 4306.55 3687.059 L 4306.14 3686.649 M 4303.89 3684.269 L 4304.1 3684.679 L 4304.5 3685.089 L 4305.12 3685.299 L 4305.53 3685.299 L 4306.14 3685.089 L 4306.55 3684.679 L 4306.75 3684.269 L 4306.75 3683.659 L 4306.55 3683.249 L 4306.14 3682.839 L 4305.53 3682.639 L 4305.12 3682.639 L 4304.5 3682.839 L 4304.1 3683.249 L 4303.89 3683.659 L 4303.89 3684.269 M 4304.91 3681.289 L 4304.91 3677.609 M 4303.07 3673.799 L 4302.66 3674.009 L 4302.46 3674.619 L 4302.46 3675.029 L 4302.66 3675.639 L 4303.28 3676.049 L 4304.3 3676.259 L 4305.32 3676.259 L 4306.14 3676.049 L 4306.55 3675.639 L 4306.75 3675.029 L 4306.75 3674.819 L 4306.55 3674.209 L 4306.14 3673.799 L 4305.53 3673.599 L 4305.32 3673.599 L 4304.71 3673.799 L 4304.3 3674.209 L 4304.1 3674.819 L 4304.1 3675.029 L 4304.3 3675.639 L 4304.71 3676.049 L 4305.32 3676.259" fill="none"  stroke-width="0.6" c_note="note_name" /></g><g c_partid="part_pcbtext" c_etype="" c_origin="4314,3707.059" c_rotation="90" c_mirror="0" id="gge55" locked="0" layerid="3" c_shapetype="group" ><path c_fontsize="4.5" c_fontfamily="" c_text="CN3" d="M 4310.48 3703.989 L 4310.07 3704.199 L 4309.66 3704.609 L 4309.46 3705.009 L 4309.46 3705.829 L 4309.66 3706.239 L 4310.07 3706.649 L 4310.48 3706.859 L 4311.1 3707.059 L 4312.12 3707.059 L 4312.73 3706.859 L 4313.14 3706.649 L 4313.55 3706.239 L 4313.75 3705.829 L 4313.75 3705.009 L 4313.55 3704.609 L 4313.14 3704.199 L 4312.73 3703.989 M 4309.46 3702.639 L 4313.75 3702.639 M 4309.46 3702.639 L 4313.75 3699.779 M 4309.46 3699.779 L 4313.75 3699.779 M 4309.46 3698.019 L 4309.46 3695.769 L 4311.1 3696.999 L 4311.1 3696.379 L 4311.3 3695.969 L 4311.5 3695.769 L 4312.12 3695.559 L 4312.53 3695.559 L 4313.14 3695.769 L 4313.55 3696.179 L 4313.75 3696.789 L 4313.75 3697.409 L 4313.55 3698.019 L 4313.35 3698.219 L 4312.94 3698.429" fill="none"  stroke-width="0.6" c_note="note_pre" /></g><g c_partid="part_pcbtext" c_etype="" c_origin="4210.5,3576" c_rotation="0" c_mirror="0" id="gge88" locked="0" layerid="3" c_shapetype="group" display="none"><path c_fontsize="4.5" c_fontfamily="" c_text="ESPino32" d="M 4210.5 3571.46 L 4210.5 3575.75 M 4210.5 3571.46 L 4213.16 3571.46 M 4210.5 3573.5 L 4212.14 3573.5 M 4210.5 3575.75 L 4213.16 3575.75 M 4217.37 3572.07 L 4216.96 3571.66 L 4216.35 3571.46 L 4215.53 3571.46 L 4214.92 3571.66 L 4214.51 3572.07 L 4214.51 3572.48 L 4214.71 3572.89 L 4214.92 3573.1 L 4215.33 3573.3 L 4216.55 3573.71 L 4216.96 3573.91 L 4217.17 3574.12 L 4217.37 3574.53 L 4217.37 3575.14 L 4216.96 3575.55 L 4216.35 3575.75 L 4215.53 3575.75 L 4214.92 3575.55 L 4214.51 3575.14 M 4218.72 3571.46 L 4218.72 3575.75 M 4218.72 3571.46 L 4220.56 3571.46 L 4221.18 3571.66 L 4221.38 3571.87 L 4221.59 3572.28 L 4221.59 3572.89 L 4221.38 3573.3 L 4221.18 3573.5 L 4220.56 3573.71 L 4218.72 3573.71 M 4222.94 3571.46 L 4223.14 3571.66 L 4223.35 3571.46 L 4223.14 3571.25 L 4222.94 3571.46 M 4223.14 3572.89 L 4223.14 3575.75 M 4224.7 3572.89 L 4224.7 3575.75 M 4224.7 3573.71 L 4225.31 3573.1 L 4225.72 3572.89 L 4226.33 3572.89 L 4226.74 3573.1 L 4226.95 3573.71 L 4226.95 3575.75 M 4229.32 3572.89 L 4228.91 3573.1 L 4228.5 3573.5 L 4228.3 3574.12 L 4228.3 3574.53 L 4228.5 3575.14 L 4228.91 3575.55 L 4229.32 3575.75 L 4229.93 3575.75 L 4230.34 3575.55 L 4230.75 3575.14 L 4230.95 3574.53 L 4230.95 3574.12 L 4230.75 3573.5 L 4230.34 3573.1 L 4229.93 3572.89 L 4229.32 3572.89 M 4232.71 3571.46 L 4234.96 3571.46 L 4233.74 3573.1 L 4234.35 3573.1 L 4234.76 3573.3 L 4234.96 3573.5 L 4235.17 3574.12 L 4235.17 3574.53 L 4234.96 3575.14 L 4234.55 3575.55 L 4233.94 3575.75 L 4233.33 3575.75 L 4232.71 3575.55 L 4232.51 3575.35 L 4232.3 3574.94 M 4236.72 3572.48 L 4236.72 3572.28 L 4236.93 3571.87 L 4237.13 3571.66 L 4237.54 3571.46 L 4238.36 3571.46 L 4238.77 3571.66 L 4238.97 3571.87 L 4239.18 3572.28 L 4239.18 3572.69 L 4238.97 3573.1 L 4238.56 3573.71 L 4236.52 3575.75 L 4239.38 3575.75" fill="none"  stroke-width="0.6" c_note="note_name" /></g><g c_partid="part_pcbtext" c_etype="" c_origin="4210.5,3583" c_rotation="0" c_mirror="0" id="gge90" locked="0" layerid="3" c_shapetype="group" ><path c_fontsize="4.5" c_fontfamily="" c_text="U1" d="M 4210.5 3578.46 L 4210.5 3581.53 L 4210.7 3582.14 L 4211.11 3582.55 L 4211.73 3582.75 L 4212.14 3582.75 L 4212.75 3582.55 L 4213.16 3582.14 L 4213.36 3581.53 L 4213.36 3578.46 M 4214.71 3579.28 L 4215.12 3579.07 L 4215.74 3578.46 L 4215.74 3582.75" fill="none"  stroke-width="0.6" c_note="note_pre" /></g><g c_partid="part_pcbtext" c_etype="pinpart" c_origin="4186.5,3666.5" c_rotation="0" c_mirror="0" id="gge96" locked="0" layerid="3" c_shapetype="group" ><path c_fontsize="8" c_fontfamily="" c_text="ESPino32" d="M 4186.5 3658.4401 L 4186.5 3666.0701 M 4186.5 3658.4401 L 4191.23 3658.4401 M 4186.5 3662.0701 L 4189.41 3662.0701 M 4186.5 3666.0701 L 4191.23 3666.0701 M 4198.72 3659.5301 L 4197.99 3658.8001 L 4196.9 3658.4401 L 4195.45 3658.4401 L 4194.35 3658.8001 L 4193.63 3659.5301 L 4193.63 3660.2501 L 4193.99 3660.9801 L 4194.35 3661.3501 L 4195.08 3661.7101 L 4197.26 3662.4401 L 4197.99 3662.8001 L 4198.35 3663.1601 L 4198.72 3663.8901 L 4198.72 3664.9801 L 4197.99 3665.7101 L 4196.9 3666.0701 L 4195.45 3666.0701 L 4194.35 3665.7101 L 4193.63 3664.9801 M 4201.12 3658.4401 L 4201.12 3666.0701 M 4201.12 3658.4401 L 4204.39 3658.4401 L 4205.48 3658.8001 L 4205.85 3659.1601 L 4206.21 3659.8901 L 4206.21 3660.9801 L 4205.85 3661.7101 L 4205.48 3662.0701 L 4204.39 3662.4401 L 4201.12 3662.4401 M 4208.61 3658.4401 L 4208.97 3658.8001 L 4209.34 3658.4401 L 4208.97 3658.0701 L 4208.61 3658.4401 M 4208.97 3660.9801 L 4208.97 3666.0701 M 4211.74 3660.9801 L 4211.74 3666.0701 M 4211.74 3662.4401 L 4212.83 3661.3501 L 4213.55 3660.9801 L 4214.65 3660.9801 L 4215.37 3661.3501 L 4215.74 3662.4401 L 4215.74 3666.0701 M 4219.95 3660.9801 L 4219.23 3661.3501 L 4218.5 3662.0701 L 4218.14 3663.1601 L 4218.14 3663.8901 L 4218.5 3664.9801 L 4219.23 3665.7101 L 4219.95 3666.0701 L 4221.05 3666.0701 L 4221.77 3665.7101 L 4222.5 3664.9801 L 4222.86 3663.8901 L 4222.86 3663.1601 L 4222.5 3662.0701 L 4221.77 3661.3501 L 4221.05 3660.9801 L 4219.95 3660.9801 M 4225.99 3658.4401 L 4229.99 3658.4401 L 4227.81 3661.3501 L 4228.9 3661.3501 L 4229.63 3661.7101 L 4229.99 3662.0701 L 4230.35 3663.1601 L 4230.35 3663.8901 L 4229.99 3664.9801 L 4229.26 3665.7101 L 4228.17 3666.0701 L 4227.08 3666.0701 L 4225.99 3665.7101 L 4225.63 3665.3501 L 4225.26 3664.6201 M 4233.12 3660.2501 L 4233.12 3659.8901 L 4233.48 3659.1601 L 4233.85 3658.8001 L 4234.57 3658.4401 L 4236.03 3658.4401 L 4236.75 3658.8001 L 4237.12 3659.1601 L 4237.48 3659.8901 L 4237.48 3660.6201 L 4237.12 3661.3501 L 4236.39 3662.4401 L 4232.75 3666.0701 L 4237.85 3666.0701" fill="none"  stroke-width="0.8"  /></g><g c_partid="part_pcbtext" c_etype="" c_origin="4135.5,3753.5" c_rotation="0" c_mirror="0" id="gge300" locked="0" layerid="3" c_shapetype="group" display="none"><path c_fontsize="4.5" c_fontfamily="" c_text="SLR-56VRT32" d="M 4138.36 3749.57 L 4137.95 3749.16 L 4137.34 3748.96 L 4136.52 3748.96 L 4135.91 3749.16 L 4135.5 3749.57 L 4135.5 3749.98 L 4135.7 3750.39 L 4135.91 3750.6 L 4136.32 3750.8 L 4137.55 3751.21 L 4137.95 3751.41 L 4138.16 3751.62 L 4138.36 3752.03 L 4138.36 3752.64 L 4137.95 3753.05 L 4137.34 3753.25 L 4136.52 3753.25 L 4135.91 3753.05 L 4135.5 3752.64 M 4139.71 3748.96 L 4139.71 3753.25 M 4139.71 3753.25 L 4142.17 3753.25 M 4143.52 3748.96 L 4143.52 3753.25 M 4143.52 3748.96 L 4145.36 3748.96 L 4145.97 3749.16 L 4146.18 3749.37 L 4146.38 3749.78 L 4146.38 3750.19 L 4146.18 3750.6 L 4145.97 3750.8 L 4145.36 3751 L 4143.52 3751 M 4144.95 3751 L 4146.38 3753.25 M 4147.73 3751.41 L 4151.41 3751.41 M 4155.22 3748.96 L 4153.17 3748.96 L 4152.97 3750.8 L 4153.17 3750.6 L 4153.79 3750.39 L 4154.4 3750.39 L 4155.01 3750.6 L 4155.42 3751 L 4155.63 3751.62 L 4155.63 3752.03 L 4155.42 3752.64 L 4155.01 3753.05 L 4154.4 3753.25 L 4153.79 3753.25 L 4153.17 3753.05 L 4152.97 3752.85 L 4152.76 3752.44 M 4159.43 3749.57 L 4159.23 3749.16 L 4158.61 3748.96 L 4158.2 3748.96 L 4157.59 3749.16 L 4157.18 3749.78 L 4156.98 3750.8 L 4156.98 3751.82 L 4157.18 3752.64 L 4157.59 3753.05 L 4158.2 3753.25 L 4158.41 3753.25 L 4159.02 3753.05 L 4159.43 3752.64 L 4159.64 3752.03 L 4159.64 3751.82 L 4159.43 3751.21 L 4159.02 3750.8 L 4158.41 3750.6 L 4158.2 3750.6 L 4157.59 3750.8 L 4157.18 3751.21 L 4156.98 3751.82 M 4160.99 3748.96 L 4162.62 3753.25 M 4164.26 3748.96 L 4162.62 3753.25 M 4165.61 3748.96 L 4165.61 3753.25 M 4165.61 3748.96 L 4167.45 3748.96 L 4168.06 3749.16 L 4168.27 3749.37 L 4168.47 3749.78 L 4168.47 3750.19 L 4168.27 3750.6 L 4168.06 3750.8 L 4167.45 3751 L 4165.61 3751 M 4167.04 3751 L 4168.47 3753.25 M 4171.25 3748.96 L 4171.25 3753.25 M 4169.82 3748.96 L 4172.69 3748.96 M 4174.45 3748.96 L 4176.7 3748.96 L 4175.47 3750.6 L 4176.08 3750.6 L 4176.49 3750.8 L 4176.7 3751 L 4176.9 3751.62 L 4176.9 3752.03 L 4176.7 3752.64 L 4176.29 3753.05 L 4175.67 3753.25 L 4175.06 3753.25 L 4174.45 3753.05 L 4174.24 3752.85 L 4174.04 3752.44 M 4178.45 3749.98 L 4178.45 3749.78 L 4178.66 3749.37 L 4178.86 3749.16 L 4179.27 3748.96 L 4180.09 3748.96 L 4180.5 3749.16 L 4180.7 3749.37 L 4180.91 3749.78 L 4180.91 3750.19 L 4180.7 3750.6 L 4180.3 3751.21 L 4178.25 3753.25 L 4181.11 3753.25" fill="none"  stroke-width="0.6" c_note="note_name" /></g><g c_partid="part_pcbtext" c_etype="" c_origin="4135.5,3760.5" c_rotation="0" c_mirror="0" id="gge302" locked="0" layerid="3" c_shapetype="group" ><path c_fontsize="4.5" c_fontfamily="" c_text="LED1" d="M 4135.5 3755.96 L 4135.5 3760.25 M 4135.5 3760.25 L 4137.95 3760.25 M 4139.3 3755.96 L 4139.3 3760.25 M 4139.3 3755.96 L 4141.96 3755.96 M 4139.3 3758 L 4140.94 3758 M 4139.3 3760.25 L 4141.96 3760.25 M 4143.31 3755.96 L 4143.31 3760.25 M 4143.31 3755.96 L 4144.75 3755.96 L 4145.36 3756.16 L 4145.77 3756.57 L 4145.97 3756.98 L 4146.18 3757.6 L 4146.18 3758.62 L 4145.97 3759.23 L 4145.77 3759.64 L 4145.36 3760.05 L 4144.75 3760.25 L 4143.31 3760.25 M 4147.53 3756.78 L 4147.94 3756.57 L 4148.55 3755.96 L 4148.55 3760.25" fill="none"  stroke-width="0.6" c_note="note_pre" /></g><g c_partid="part_pcbtext" c_etype="" c_origin="4056.39,3800.79" c_rotation="0" c_mirror="0" id="gge323" locked="0" layerid="3" c_shapetype="group" display="none"><path c_fontsize="4.5" c_fontfamily="" c_text="SLR-56VRT32" d="M 4059.2499 3796.86 L 4058.8399 3796.45 L 4058.2299 3796.25 L 4057.4099 3796.25 L 4056.7999 3796.45 L 4056.3899 3796.86 L 4056.3899 3797.27 L 4056.5899 3797.68 L 4056.7999 3797.89 L 4057.2099 3798.09 L 4058.4399 3798.5 L 4058.8399 3798.7 L 4059.0499 3798.91 L 4059.2499 3799.32 L 4059.2499 3799.93 L 4058.8399 3800.34 L 4058.2299 3800.54 L 4057.4099 3800.54 L 4056.7999 3800.34 L 4056.3899 3799.93 M 4060.5999 3796.25 L 4060.5999 3800.54 M 4060.5999 3800.54 L 4063.0599 3800.54 M 4064.4099 3796.25 L 4064.4099 3800.54 M 4064.4099 3796.25 L 4066.2499 3796.25 L 4066.8599 3796.45 L 4067.0699 3796.66 L 4067.2699 3797.07 L 4067.2699 3797.48 L 4067.0699 3797.89 L 4066.8599 3798.09 L 4066.2499 3798.29 L 4064.4099 3798.29 M 4065.8399 3798.29 L 4067.2699 3800.54 M 4068.6199 3798.7 L 4072.2999 3798.7 M 4076.1099 3796.25 L 4074.0599 3796.25 L 4073.8599 3798.09 L 4074.0599 3797.89 L 4074.6799 3797.68 L 4075.2899 3797.68 L 4075.8999 3797.89 L 4076.3099 3798.29 L 4076.5199 3798.91 L 4076.5199 3799.32 L 4076.3099 3799.93 L 4075.8999 3800.34 L 4075.2899 3800.54 L 4074.6799 3800.54 L 4074.0599 3800.34 L 4073.8599 3800.14 L 4073.6499 3799.73 M 4080.3199 3796.86 L 4080.1199 3796.45 L 4079.4999 3796.25 L 4079.0899 3796.25 L 4078.4799 3796.45 L 4078.0699 3797.07 L 4077.8699 3798.09 L 4077.8699 3799.11 L 4078.0699 3799.93 L 4078.4799 3800.34 L 4079.0899 3800.54 L 4079.2999 3800.54 L 4079.9099 3800.34 L 4080.3199 3799.93 L 4080.5299 3799.32 L 4080.5299 3799.11 L 4080.3199 3798.5 L 4079.9099 3798.09 L 4079.2999 3797.89 L 4079.0899 3797.89 L 4078.4799 3798.09 L 4078.0699 3798.5 L 4077.8699 3799.11 M 4081.8799 3796.25 L 4083.5099 3800.54 M 4085.1499 3796.25 L 4083.5099 3800.54 M 4086.4999 3796.25 L 4086.4999 3800.54 M 4086.4999 3796.25 L 4088.3399 3796.25 L 4088.9499 3796.45 L 4089.1599 3796.66 L 4089.3599 3797.07 L 4089.3599 3797.48 L 4089.1599 3797.89 L 4088.9499 3798.09 L 4088.3399 3798.29 L 4086.4999 3798.29 M 4087.9299 3798.29 L 4089.3599 3800.54 M 4092.1399 3796.25 L 4092.1399 3800.54 M 4090.7099 3796.25 L 4093.5799 3796.25 M 4095.3399 3796.25 L 4097.5899 3796.25 L 4096.3599 3797.89 L 4096.9699 3797.89 L 4097.3799 3798.09 L 4097.5899 3798.29 L 4097.7899 3798.91 L 4097.7899 3799.32 L 4097.5899 3799.93 L 4097.1799 3800.34 L 4096.5599 3800.54 L 4095.9499 3800.54 L 4095.3399 3800.34 L 4095.1299 3800.14 L 4094.9299 3799.73 M 4099.3399 3797.27 L 4099.3399 3797.07 L 4099.5499 3796.66 L 4099.7499 3796.45 L 4100.1599 3796.25 L 4100.9799 3796.25 L 4101.3899 3796.45 L 4101.5899 3796.66 L 4101.7999 3797.07 L 4101.7999 3797.48 L 4101.5899 3797.89 L 4101.1899 3798.5 L 4099.1399 3800.54 L 4101.9999 3800.54" fill="none"  stroke-width="0.6" c_note="note_name" /></g><g c_partid="part_pcbtext" c_etype="" c_origin="4102,3789" c_rotation="180" c_mirror="0" id="gge325" locked="0" layerid="3" c_shapetype="group" ><path c_fontsize="4.5" c_fontfamily="" c_text="LED2" d="M 4102 3793.54 L 4102 3789.25 M 4102 3789.25 L 4099.55 3789.25 M 4098.2 3793.54 L 4098.2 3789.25 M 4098.2 3793.54 L 4095.54 3793.54 M 4098.2 3791.5 L 4096.56 3791.5 M 4098.2 3789.25 L 4095.54 3789.25 M 4094.19 3793.54 L 4094.19 3789.25 M 4094.19 3793.54 L 4092.75 3793.54 L 4092.14 3793.34 L 4091.73 3792.93 L 4091.53 3792.52 L 4091.32 3791.9 L 4091.32 3790.88 L 4091.53 3790.27 L 4091.73 3789.86 L 4092.14 3789.45 L 4092.75 3789.25 L 4094.19 3789.25 M 4089.77 3792.52 L 4089.77 3792.72 L 4089.56 3793.13 L 4089.36 3793.34 L 4088.95 3793.54 L 4088.13 3793.54 L 4087.72 3793.34 L 4087.52 3793.13 L 4087.31 3792.72 L 4087.31 3792.31 L 4087.52 3791.9 L 4087.93 3791.29 L 4089.97 3789.25 L 4087.11 3789.25" fill="none"  stroke-width="0.6" c_note="note_pre" /></g><g c_partid="part_pcbtext" c_etype="" c_origin="4355.35,3632.29" c_rotation="90" c_mirror="0" id="gge346" locked="0" layerid="3" c_shapetype="group" display="none"><path c_fontsize="4.5" c_fontfamily="" c_text="sgp30" d="M 4352.8501 3630.04 L 4352.4501 3630.24 L 4352.2401 3630.86 L 4352.2401 3631.47 L 4352.4501 3632.09 L 4352.8501 3632.29 L 4353.2601 3632.09 L 4353.4701 3631.68 L 4353.6701 3630.65 L 4353.8801 3630.24 L 4354.2901 3630.04 L 4354.4901 3630.04 L 4354.9001 3630.24 L 4355.1001 3630.86 L 4355.1001 3631.47 L 4354.9001 3632.09 L 4354.4901 3632.29 M 4352.2401 3626.24 L 4355.5101 3626.24 L 4356.1301 3626.44 L 4356.3301 3626.64 L 4356.5401 3627.05 L 4356.5401 3627.67 L 4356.3301 3628.08 M 4352.8501 3626.24 L 4352.4501 3626.64 L 4352.2401 3627.05 L 4352.2401 3627.67 L 4352.4501 3628.08 L 4352.8501 3628.49 L 4353.4701 3628.69 L 4353.8801 3628.69 L 4354.4901 3628.49 L 4354.9001 3628.08 L 4355.1001 3627.67 L 4355.1001 3627.05 L 4354.9001 3626.64 L 4354.4901 3626.24 M 4352.2401 3624.89 L 4356.5401 3624.89 M 4352.8501 3624.89 L 4352.4501 3624.48 L 4352.2401 3624.07 L 4352.2401 3623.45 L 4352.4501 3623.04 L 4352.8501 3622.64 L 4353.4701 3622.43 L 4353.8801 3622.43 L 4354.4901 3622.64 L 4354.9001 3623.04 L 4355.1001 3623.45 L 4355.1001 3624.07 L 4354.9001 3624.48 L 4354.4901 3624.89 M 4350.8101 3620.67 L 4350.8101 3618.42 L 4352.4501 3619.65 L 4352.4501 3619.04 L 4352.6501 3618.63 L 4352.8501 3618.42 L 4353.4701 3618.22 L 4353.8801 3618.22 L 4354.4901 3618.42 L 4354.9001 3618.83 L 4355.1001 3619.44 L 4355.1001 3620.06 L 4354.9001 3620.67 L 4354.7001 3620.88 L 4354.2901 3621.08 M 4350.8101 3615.64 L 4351.0101 3616.25 L 4351.6301 3616.66 L 4352.6501 3616.87 L 4353.2601 3616.87 L 4354.2901 3616.66 L 4354.9001 3616.25 L 4355.1001 3615.64 L 4355.1001 3615.23 L 4354.9001 3614.62 L 4354.2901 3614.21 L 4353.2601 3614 L 4352.6501 3614 L 4351.6301 3614.21 L 4351.0101 3614.62 L 4350.8101 3615.23 L 4350.8101 3615.64" fill="none"  stroke-width="0.6" c_note="note_name" /></g><g c_partid="part_pcbtext" c_etype="" c_origin="4345,3614" c_rotation="270" c_mirror="0" id="gge348" locked="0" layerid="3" c_shapetype="group" ><path c_fontsize="4.5" c_fontfamily="" c_text="CN1" d="M 4348.52 3617.07 L 4348.93 3616.86 L 4349.34 3616.45 L 4349.54 3616.05 L 4349.54 3615.23 L 4349.34 3614.82 L 4348.93 3614.41 L 4348.52 3614.2 L 4347.9 3614 L 4346.88 3614 L 4346.27 3614.2 L 4345.86 3614.41 L 4345.45 3614.82 L 4345.25 3615.23 L 4345.25 3616.05 L 4345.45 3616.45 L 4345.86 3616.86 L 4346.27 3617.07 M 4349.54 3618.42 L 4345.25 3618.42 M 4349.54 3618.42 L 4345.25 3621.28 M 4349.54 3621.28 L 4345.25 3621.28 M 4348.72 3622.63 L 4348.93 3623.04 L 4349.54 3623.65 L 4345.25 3623.65" fill="none"  stroke-width="0.6" c_note="note_pre" /></g><g c_partid="part_pcbtext" c_etype="" c_origin="4099.5,3617.5" c_rotation="0" c_mirror="0" id="gge376" locked="0" layerid="3" c_shapetype="group" display="none"><path c_fontsize="4.5" c_fontfamily="" c_text="mq6" d="M 4099.5 3614.39 L 4099.5 3617.25 M 4099.5 3615.21 L 4100.11 3614.6 L 4100.52 3614.39 L 4101.14 3614.39 L 4101.55 3614.6 L 4101.75 3615.21 L 4101.75 3617.25 M 4101.75 3615.21 L 4102.36 3614.6 L 4102.77 3614.39 L 4103.39 3614.39 L 4103.8 3614.6 L 4104 3615.21 L 4104 3617.25 M 4107.8 3614.39 L 4107.8 3618.69 M 4107.8 3615 L 4107.4 3614.6 L 4106.99 3614.39 L 4106.37 3614.39 L 4105.96 3614.6 L 4105.55 3615 L 4105.35 3615.62 L 4105.35 3616.03 L 4105.55 3616.64 L 4105.96 3617.05 L 4106.37 3617.25 L 4106.99 3617.25 L 4107.4 3617.05 L 4107.8 3616.64 M 4111.61 3613.57 L 4111.4 3613.16 L 4110.79 3612.96 L 4110.38 3612.96 L 4109.77 3613.16 L 4109.36 3613.78 L 4109.15 3614.8 L 4109.15 3615.82 L 4109.36 3616.64 L 4109.77 3617.05 L 4110.38 3617.25 L 4110.59 3617.25 L 4111.2 3617.05 L 4111.61 3616.64 L 4111.81 3616.03 L 4111.81 3615.82 L 4111.61 3615.21 L 4111.2 3614.8 L 4110.59 3614.6 L 4110.38 3614.6 L 4109.77 3614.8 L 4109.36 3615.21 L 4109.15 3615.82" fill="none"  stroke-width="0.6" c_note="note_name" /></g><g c_partid="part_pcbtext" c_etype="" c_origin="4099.5,3624.5" c_rotation="0" c_mirror="0" id="gge378" locked="0" layerid="3" c_shapetype="group" ><path c_fontsize="4.5" c_fontfamily="" c_text="CN2" d="M 4102.57 3620.98 L 4102.36 3620.57 L 4101.95 3620.16 L 4101.55 3619.96 L 4100.73 3619.96 L 4100.32 3620.16 L 4099.91 3620.57 L 4099.7 3620.98 L 4099.5 3621.6 L 4099.5 3622.62 L 4099.7 3623.23 L 4099.91 3623.64 L 4100.32 3624.05 L 4100.73 3624.25 L 4101.55 3624.25 L 4101.95 3624.05 L 4102.36 3623.64 L 4102.57 3623.23 M 4103.92 3619.96 L 4103.92 3624.25 M 4103.92 3619.96 L 4106.78 3624.25 M 4106.78 3619.96 L 4106.78 3624.25 M 4108.34 3620.98 L 4108.34 3620.78 L 4108.54 3620.37 L 4108.75 3620.16 L 4109.15 3619.96 L 4109.97 3619.96 L 4110.38 3620.16 L 4110.59 3620.37 L 4110.79 3620.78 L 4110.79 3621.19 L 4110.59 3621.6 L 4110.18 3622.21 L 4108.13 3624.25 L 4111 3624.25" fill="none"  stroke-width="0.6" c_note="note_pre" /></g><g c_partid="part_pcbtext" c_etype="" c_origin="4101,3661.5" c_rotation="0" c_mirror="0" id="gge406" locked="0" layerid="3" c_shapetype="group" display="none"><path c_fontsize="4.5" c_fontfamily="" c_text="mq6" d="M 4101 3658.39 L 4101 3661.25 M 4101 3659.21 L 4101.61 3658.6 L 4102.02 3658.39 L 4102.64 3658.39 L 4103.05 3658.6 L 4103.25 3659.21 L 4103.25 3661.25 M 4103.25 3659.21 L 4103.86 3658.6 L 4104.27 3658.39 L 4104.89 3658.39 L 4105.3 3658.6 L 4105.5 3659.21 L 4105.5 3661.25 M 4109.3 3658.39 L 4109.3 3662.69 M 4109.3 3659 L 4108.9 3658.6 L 4108.49 3658.39 L 4107.87 3658.39 L 4107.46 3658.6 L 4107.05 3659 L 4106.85 3659.62 L 4106.85 3660.03 L 4107.05 3660.64 L 4107.46 3661.05 L 4107.87 3661.25 L 4108.49 3661.25 L 4108.9 3661.05 L 4109.3 3660.64 M 4113.11 3657.57 L 4112.9 3657.16 L 4112.29 3656.96 L 4111.88 3656.96 L 4111.27 3657.16 L 4110.86 3657.78 L 4110.65 3658.8 L 4110.65 3659.82 L 4110.86 3660.64 L 4111.27 3661.05 L 4111.88 3661.25 L 4112.09 3661.25 L 4112.7 3661.05 L 4113.11 3660.64 L 4113.31 3660.03 L 4113.31 3659.82 L 4113.11 3659.21 L 4112.7 3658.8 L 4112.09 3658.6 L 4111.88 3658.6 L 4111.27 3658.8 L 4110.86 3659.21 L 4110.65 3659.82" fill="none"  stroke-width="0.6" c_note="note_name" /></g><g c_partid="part_pcbtext" c_etype="" c_origin="4101,3668.5" c_rotation="0" c_mirror="0" id="gge408" locked="0" layerid="3" c_shapetype="group" ><path c_fontsize="4.5" c_fontfamily="" c_text="CN4" d="M 4104.07 3664.98 L 4103.86 3664.57 L 4103.45 3664.16 L 4103.05 3663.96 L 4102.23 3663.96 L 4101.82 3664.16 L 4101.41 3664.57 L 4101.2 3664.98 L 4101 3665.6 L 4101 3666.62 L 4101.2 3667.23 L 4101.41 3667.64 L 4101.82 3668.05 L 4102.23 3668.25 L 4103.05 3668.25 L 4103.45 3668.05 L 4103.86 3667.64 L 4104.07 3667.23 M 4105.42 3663.96 L 4105.42 3668.25 M 4105.42 3663.96 L 4108.28 3668.25 M 4108.28 3663.96 L 4108.28 3668.25 M 4111.68 3663.96 L 4109.63 3666.82 L 4112.7 3666.82 M 4111.68 3663.96 L 4111.68 3668.25" fill="none"  stroke-width="0.6" c_note="note_pre" /></g><g c_partid="part_pcbtext" c_etype="" c_origin="4109.56,3760.11" c_rotation="90" c_mirror="0" id="gge436" locked="0" layerid="3" c_shapetype="group" display="none"><path c_fontsize="4.5" c_fontfamily="" c_text="Register" d="M 4105.0201 3760.1101 L 4109.3101 3760.1101 M 4105.0201 3760.1101 L 4105.0201 3758.2701 L 4105.2201 3757.6601 L 4105.4301 3757.4501 L 4105.8401 3757.2501 L 4106.2501 3757.2501 L 4106.6601 3757.4501 L 4106.8601 3757.6601 L 4107.0601 3758.2701 L 4107.0601 3760.1101 M 4107.0601 3758.6801 L 4109.3101 3757.2501 M 4107.6801 3755.9001 L 4107.6801 3753.4401 L 4107.2701 3753.4401 L 4106.8601 3753.6501 L 4106.6601 3753.8501 L 4106.4501 3754.2601 L 4106.4501 3754.8701 L 4106.6601 3755.2801 L 4107.0601 3755.6901 L 4107.6801 3755.9001 L 4108.0901 3755.9001 L 4108.7001 3755.6901 L 4109.1101 3755.2801 L 4109.3101 3754.8701 L 4109.3101 3754.2601 L 4109.1101 3753.8501 L 4108.7001 3753.4401 M 4106.4501 3749.6401 L 4109.7201 3749.6401 L 4110.3401 3749.8401 L 4110.5401 3750.0501 L 4110.7501 3750.4601 L 4110.7501 3751.0701 L 4110.5401 3751.4801 M 4107.0601 3749.6401 L 4106.6601 3750.0501 L 4106.4501 3750.4601 L 4106.4501 3751.0701 L 4106.6601 3751.4801 L 4107.0601 3751.8901 L 4107.6801 3752.0901 L 4108.0901 3752.0901 L 4108.7001 3751.8901 L 4109.1101 3751.4801 L 4109.3101 3751.0701 L 4109.3101 3750.4601 L 4109.1101 3750.0501 L 4108.7001 3749.6401 M 4105.0201 3748.2901 L 4105.2201 3748.0801 L 4105.0201 3747.8801 L 4104.8101 3748.0801 L 4105.0201 3748.2901 M 4106.4501 3748.0801 L 4109.3101 3748.0801 M 4107.0601 3744.2801 L 4106.6601 3744.4801 L 4106.4501 3745.1001 L 4106.4501 3745.7101 L 4106.6601 3746.3201 L 4107.0601 3746.5301 L 4107.4701 3746.3201 L 4107.6801 3745.9101 L 4107.8801 3744.8901 L 4108.0901 3744.4801 L 4108.5001 3744.2801 L 4108.7001 3744.2801 L 4109.1101 3744.4801 L 4109.3101 3745.1001 L 4109.3101 3745.7101 L 4109.1101 3746.3201 L 4108.7001 3746.5301 M 4105.0201 3742.3101 L 4108.5001 3742.3101 L 4109.1101 3742.1101 L 4109.3101 3741.7001 L 4109.3101 3741.2901 M 4106.4501 3742.9301 L 4106.4501 3741.5001 M 4107.6801 3739.9401 L 4107.6801 3737.4901 L 4107.2701 3737.4901 L 4106.8601 3737.6901 L 4106.6601 3737.9001 L 4106.4501 3738.3101 L 4106.4501 3738.9201 L 4106.6601 3739.3301 L 4107.0601 3739.7401 L 4107.6801 3739.9401 L 4108.0901 3739.9401 L 4108.7001 3739.7401 L 4109.1101 3739.3301 L 4109.3101 3738.9201 L 4109.3101 3738.3101 L 4109.1101 3737.9001 L 4108.7001 3737.4901 M 4106.4501 3736.1401 L 4109.3101 3736.1401 M 4107.6801 3736.1401 L 4107.0601 3735.9301 L 4106.6601 3735.5201 L 4106.4501 3735.1101 L 4106.4501 3734.5001" fill="none"  stroke-width="0.6" c_note="note_name" /></g><g c_partid="part_pcbtext" c_etype="" c_origin="4099,3734.5" c_rotation="270" c_mirror="0" id="gge438" locked="0" layerid="3" c_shapetype="group" ><path c_fontsize="4.5" c_fontfamily="" c_text="R1" d="M 4103.54 3734.5 L 4099.25 3734.5 M 4103.54 3734.5 L 4103.54 3736.34 L 4103.34 3736.95 L 4103.13 3737.16 L 4102.72 3737.36 L 4102.31 3737.36 L 4101.9 3737.16 L 4101.7 3736.95 L 4101.5 3736.34 L 4101.5 3734.5 M 4101.5 3735.93 L 4099.25 3737.36 M 4102.72 3738.71 L 4102.93 3739.12 L 4103.54 3739.74 L 4099.25 3739.74" fill="none"  stroke-width="0.6" c_note="note_pre" /></g><g c_partid="part_pcbtext" c_etype="" c_origin="4133.5,3731.5" c_rotation="0" c_mirror="0" id="gge462" locked="0" layerid="3" c_shapetype="group" display="none"><path c_fontsize="4.5" c_fontfamily="" c_text="Register" d="M 4133.5 3726.96 L 4133.5 3731.25 M 4133.5 3726.96 L 4135.34 3726.96 L 4135.95 3727.16 L 4136.16 3727.37 L 4136.36 3727.78 L 4136.36 3728.19 L 4136.16 3728.6 L 4135.95 3728.8 L 4135.34 3729 L 4133.5 3729 M 4134.93 3729 L 4136.36 3731.25 M 4137.71 3729.62 L 4140.17 3729.62 L 4140.17 3729.21 L 4139.96 3728.8 L 4139.76 3728.6 L 4139.35 3728.39 L 4138.74 3728.39 L 4138.33 3728.6 L 4137.92 3729 L 4137.71 3729.62 L 4137.71 3730.03 L 4137.92 3730.64 L 4138.33 3731.05 L 4138.74 3731.25 L 4139.35 3731.25 L 4139.76 3731.05 L 4140.17 3730.64 M 4143.97 3728.39 L 4143.97 3731.66 L 4143.77 3732.28 L 4143.56 3732.48 L 4143.15 3732.69 L 4142.54 3732.69 L 4142.13 3732.48 M 4143.97 3729 L 4143.56 3728.6 L 4143.15 3728.39 L 4142.54 3728.39 L 4142.13 3728.6 L 4141.72 3729 L 4141.52 3729.62 L 4141.52 3730.03 L 4141.72 3730.64 L 4142.13 3731.05 L 4142.54 3731.25 L 4143.15 3731.25 L 4143.56 3731.05 L 4143.97 3730.64 M 4145.32 3726.96 L 4145.53 3727.16 L 4145.73 3726.96 L 4145.53 3726.75 L 4145.32 3726.96 M 4145.53 3728.39 L 4145.53 3731.25 M 4149.33 3729 L 4149.13 3728.6 L 4148.51 3728.39 L 4147.9 3728.39 L 4147.29 3728.6 L 4147.08 3729 L 4147.29 3729.41 L 4147.7 3729.62 L 4148.72 3729.82 L 4149.13 3730.03 L 4149.33 3730.44 L 4149.33 3730.64 L 4149.13 3731.05 L 4148.51 3731.25 L 4147.9 3731.25 L 4147.29 3731.05 L 4147.08 3730.64 M 4151.3 3726.96 L 4151.3 3730.44 L 4151.5 3731.05 L 4151.91 3731.25 L 4152.32 3731.25 M 4150.68 3728.39 L 4152.11 3728.39 M 4153.67 3729.62 L 4156.12 3729.62 L 4156.12 3729.21 L 4155.92 3728.8 L 4155.71 3728.6 L 4155.3 3728.39 L 4154.69 3728.39 L 4154.28 3728.6 L 4153.87 3729 L 4153.67 3729.62 L 4153.67 3730.03 L 4153.87 3730.64 L 4154.28 3731.05 L 4154.69 3731.25 L 4155.3 3731.25 L 4155.71 3731.05 L 4156.12 3730.64 M 4157.47 3728.39 L 4157.47 3731.25 M 4157.47 3729.62 L 4157.68 3729 L 4158.09 3728.6 L 4158.5 3728.39 L 4159.11 3728.39" fill="none"  stroke-width="0.6" c_note="note_name" /></g><g c_partid="part_pcbtext" c_etype="" c_origin="4133.5,3738.5" c_rotation="0" c_mirror="0" id="gge464" locked="0" layerid="3" c_shapetype="group" ><path c_fontsize="4.5" c_fontfamily="" c_text="R2" d="M 4133.5 3733.96 L 4133.5 3738.25 M 4133.5 3733.96 L 4135.34 3733.96 L 4135.95 3734.16 L 4136.16 3734.37 L 4136.36 3734.78 L 4136.36 3735.19 L 4136.16 3735.6 L 4135.95 3735.8 L 4135.34 3736 L 4133.5 3736 M 4134.93 3736 L 4136.36 3738.25 M 4137.92 3734.98 L 4137.92 3734.78 L 4138.12 3734.37 L 4138.33 3734.16 L 4138.74 3733.96 L 4139.55 3733.96 L 4139.96 3734.16 L 4140.17 3734.37 L 4140.37 3734.78 L 4140.37 3735.19 L 4140.17 3735.6 L 4139.76 3736.21 L 4137.71 3738.25 L 4140.58 3738.25" fill="none"  stroke-width="0.6" c_note="note_pre" /></g><path d="M 4147.5 3782 A 12.5 12.5 0 1 1 4147.5 3767" locked="0"  fill="none" stroke-width="1" c_helper_type="arc2" net="" layerid="3" id="gge307" /><path d="M 4090 3767.5 A 12.5 12.5 0 1 1 4090 3782.5" locked="0"  fill="none" stroke-width="1" c_helper_type="arc2" net="" layerid="3" id="gge330" /><circle cx="4137.5" cy="3774.5" r="10" stroke-width="1" fill="none" layerid="3" id="gge308" locked="0"  /><circle cx="4100" cy="3775" r="10" stroke-width="1" fill="none" layerid="3" id="gge331" locked="0"  /><polyline points="4052 3569 4387.5 3569 4387.5 3846 4052 3846 4052 3569 4053 3569" stroke-width="1"  stroke-linecap="round" fill="none" layerid="10" net="" id="gge513" locked="0" /></svg>